<svg xmlns="http://www.w3.org/2000/svg" width="802.103" height="801.689" viewBox="0 0 802.103 801.689">
  <g id="Layer_2" data-name="Layer 2" transform="translate(0.012 -0.041)">
    <g id="Layer_1" data-name="Layer 1" transform="translate(-0.012 0.041)">
      <path id="Path_91" data-name="Path 91" d="M666.84,172.6l-84.784,69.788Q401.409,391,220.628,539.489a14.4,14.4,0,0,1-11.754,1.93C147.559,520.285,86.378,498.747,25.1,477.3a53.345,53.345,0,0,1-5.4-1.93C9.353,470.4.591,463.389.012,451.211c-.521-11.58,7.546-18.74,16.849-24.009q64.6-36.554,129.309-72.857Q453.828,181.554,761.525,8.878a83.819,83.819,0,0,1,17.5-7.72c13.742-3.976,23.739,2.876,23.025,17.061-.849,16.945-3.571,33.833-6.079,50.643Q781,169.434,765.655,269.928q-18.972,125.681-38.04,251.419-11,72.9-21.809,145.829c-4.42,29.838-24.511,40.665-52.9,30.378-61.258-22.233-122.882-43.444-184.371-65.06-8.473-2.991-17.158-5.52-25.4-9.032-5.79-2.47-8.415-.753-11.464,4.246Q392.107,692.826,351.925,757.5c-7.72,12.564-15.922,24.935-24.53,36.94-2.451,3.416-8.183,8.067-10.576,7.18a34.082,34.082,0,0,1-14.166-11.136c-2.2-2.837-1.93-8.01-1.93-12.14q0-89.252-.116-178.543a63.284,63.284,0,0,1,17.852-45.258Q491.752,366.659,664.5,178.08c1.274-1.39,2.509-2.818,3.763-4.246Z" transform="translate(0.012 -0.041)" fill="#fff"/>
    </g>
  </g>
</svg>
