<svg xmlns="http://www.w3.org/2000/svg" width="589.644" height="136.143" viewBox="0 0 589.644 136.143">
  <g id="Group_119" data-name="Group 119" transform="translate(1902.644 520.5)">
    <g id="Group_116" data-name="Group 116">
      <g id="Group_85" data-name="Group 85" transform="translate(-1499.435 -509)">
        <g id="Group_3" data-name="Group 3" transform="translate(0.182 74.778)">
          <path id="Path_1" data-name="Path 1" d="M63.6,360.63v2.688c0,1.794,2.331,2.86,5.2,2.86s4.839-1.077,4.839-2.86c0-2.688-3.944-3.585-7.709-5.2-4.839-1.794-9.5-4.3-9.5-10.935,0-8.067,6.633-10.577,12.908-10.577,6.1,0,12.191,2.331,12.191,6.992v5.378H73.456v-2.333c0-1.43-1.971-2.151-4.122-2.151s-3.944.537-3.944,2.51c0,2.51,3.048,3.585,6.275,4.661C77.221,353.638,82.6,355.789,82.6,362.6c0,8.246-6.992,11.294-13.982,11.294-6.633,0-13.265-3.048-13.265-8.784v-4.661l8.246.18Z" transform="translate(-55.352 -336.608)" fill="#0f0303"/>
          <path id="Path_2" data-name="Path 2" d="M159.2,368.093h4.124V345.686h-4.482v5.2h-7.53V338.694h32.806v12.191h-7.529v-5.021h-4.3v22.409h4.122v6.633h-17.03Z" transform="translate(-118.326 -337.977)" fill="#0f0303"/>
          <path id="Path_4" data-name="Path 4" d="M392.264,367.729h4.122V344.784h-4.122v-6.633h16.313a28.5,28.5,0,0,1,7.17.717,9.9,9.9,0,0,1,7.17,10.213,10.526,10.526,0,0,1-5.924,9.86v.18a4.23,4.23,0,0,1,2.151,2.151l2.688,5.378c.537.9,1.077,1.077,2.331,1.077h1.254v6.633h-5.924c-2.86,0-4.122-.717-5.019-2.688l-4.482-8.426c-.537-1.076-1.254-1.614-3.048-1.614h-1.794v6.1h3.765v6.633H392.264Zm17.21-13.086a4.167,4.167,0,0,0,4.662-4.661,3.861,3.861,0,0,0-1.971-3.944,8.417,8.417,0,0,0-3.405-.537h-3.227v9.321l3.944-.18Z" transform="translate(-276.462 -337.614)" fill="#0f0303"/>
          <path id="Path_5" data-name="Path 5" d="M508.458,367.749h4.122V359.5L503.8,344.8h-3.048v-6.624h14.879V344.8H512.58l3.765,6.633.9,1.793h.18a6.462,6.462,0,0,1,.9-1.793l3.765-6.633h-3.05v-6.633h14.879V344.8h-3.048l-8.784,14.708v8.238H526.2v6.633H509.175v-6.633Z" transform="translate(-347.659 -337.634)" fill="#0f0303"/>
        </g>
        <g id="Group_2" data-name="Group 2" transform="translate(0)">
          <path id="Path_7" data-name="Path 7" d="M66.834,119.117a10.01,10.01,0,0,1,6.633,2.331l-1.254,2.331a8.544,8.544,0,0,0-5.556-2.151c-5.736,0-9.143,5.2-9.143,11.832,0,6.812,3.405,12.369,9.143,12.369a10.037,10.037,0,0,0,6.275-2.331l1.077,2.331a11.057,11.057,0,0,1-7.354,2.511c-7.354,0-11.831-6.453-11.831-14.879C55,125.392,59.484,119.117,66.834,119.117Z" transform="translate(-54.823 -119.093)" fill="#0f0303"/>
          <path id="Path_8" data-name="Path 8" d="M139.375,120.684h2.86l7.887,28.325h-2.68l-2.51-8.963h-8.245l-2.511,8.963h-2.688Zm5.019,16.851-2.86-10.214c-.359-1.254-.717-3.765-.717-3.765h-.18s-.359,2.331-.717,3.765l-2.86,10.214Z" transform="translate(-105.137 -120.123)" fill="#0f0303"/>
          <path id="Path_9" data-name="Path 9" d="M211.809,120.684h2.86l10.577,20.078c.717,1.43,1.614,3.765,1.614,3.765h0s-.18-2.331-.18-3.765V120.684h2.51v28.325h-2.674L215.939,128.93c-.717-1.43-1.614-3.765-1.614-3.765h0s.18,2.331.18,3.765v20.078h-2.7Z" transform="translate(-157.851 -120.123)" fill="#0f0303"/>
          <path id="Path_10" data-name="Path 10" d="M296.884,120.684h2.86l7.887,28.325h-2.68l-2.51-8.963H294.2l-2.511,8.963H289Zm5.019,16.851-2.86-10.214c-.36-1.254-.717-3.765-.717-3.765h-.18s-.359,2.331-.717,3.765l-2.86,10.214Z" transform="translate(-208.508 -120.123)" fill="#0f0303"/>
          <path id="Path_11" data-name="Path 11" d="M369.841,120.684h7.354c6.633,0,11.114,5.2,11.114,14.162s-4.482,14.162-11.114,14.162h-7.354Zm6.992,25.814c5.2,0,8.6-4.122,8.6-11.831,0-7.53-3.405-11.644-8.6-11.644h-4.3v23.491Z" transform="translate(-261.565 -120.123)" fill="#0f0303"/>
          <path id="Path_12" data-name="Path 12" d="M452.307,120.684h2.86l7.887,28.325h-2.68l-2.51-8.963h-8.244l-2.51,8.963H444.42Zm5.019,16.851-2.86-10.214c-.359-1.254-.717-3.765-.717-3.765h-.18s-.36,2.331-.717,3.765l-2.86,10.214Z" transform="translate(-310.51 -120.123)" fill="#0f0303"/>
          <path id="Path_13" data-name="Path 13" d="M518.691,119.644h2.688l-1.794,6.992h-2.149Z" transform="translate(-358.43 -119.44)" fill="#0f0303"/>
          <path id="Path_14" data-name="Path 14" d="M554.5,143.455a7.452,7.452,0,0,0,5.378,2.331,4.568,4.568,0,0,0,4.668-4.465c0-.125,0-.25-.007-.375,0-6.812-10.755-6.1-10.755-14.52a7.15,7.15,0,0,1,7.709-7.354,9.853,9.853,0,0,1,5.736,1.794l-1.077,2.51a8.114,8.114,0,0,0-4.661-1.614,4.6,4.6,0,0,0-4.839,4.352,4.657,4.657,0,0,0,0,.487c0,6.453,10.755,5.736,10.755,14.342a7.149,7.149,0,0,1-7.354,7.709,9.207,9.207,0,0,1-6.631-2.688Z" transform="translate(-382.046 -119.051)" fill="#0f0303"/>
          <path id="Path_15" data-name="Path 15" d="M59.7,230.732h2.68v19.361c0,4.661,2.339,6.99,5.744,6.99,3.585,0,5.924-2.331,5.924-6.992V230.732h2.688v19.541c0,5.924-3.405,9.321-8.6,9.321s-8.612-3.405-8.612-9.321Z" transform="translate(-57.904 -192.345)" fill="#0f0303"/>
          <path id="Path_16" data-name="Path 16" d="M144.527,230.732h2.688v25.993h10.038v2.511H144.527Z" transform="translate(-113.694 -192.345)" fill="#0f0303"/>
          <path id="Path_17" data-name="Path 17" d="M200.221,232.719h-7.709v-2.51h18.107v2.51h-7.709v25.992h-2.688Z" transform="translate(-145.186 -192.002)" fill="#0f0303"/>
          <path id="Path_18" data-name="Path 18" d="M273.349,230.732h2.688v28.324h-2.688Z" transform="translate(-198.238 -192.345)" fill="#0f0303"/>
          <path id="Path_19" data-name="Path 19" d="M316.689,230.732h2.86l5.379,16.313c.359,1.43,1.076,3.765,1.076,3.765h0s.537-2.331.9-3.765l5.385-16.313h2.86l1.794,28.324h-2.5l-1.254-19.718v-3.944h0s-.537,2.688-1.077,4.3l-4.839,14.162h-2.69L319.914,239.7a35.337,35.337,0,0,1-1.077-4.3h0v3.944l-1.254,19.718h-2.508Z" transform="translate(-225.622 -192.345)" fill="#0f0303"/>
          <path id="Path_20" data-name="Path 20" d="M412.667,230.732h2.86l7.887,28.324h-2.68l-2.51-8.963h-8.244l-2.511,8.963H404.78Zm5.2,17.03-2.86-10.214c-.36-1.254-.717-3.765-.717-3.765h-.18s-.36,2.331-.717,3.765l-2.86,10.214Z" transform="translate(-284.495 -192.345)" fill="#0f0303"/>
          <path id="Path_21" data-name="Path 21" d="M481.856,232.719h-7.709v-2.51h18.107v2.51h-7.71v25.992h-2.688Z" transform="translate(-330.019 -192.002)" fill="#0f0303"/>
          <path id="Path_22" data-name="Path 22" d="M554.991,230.732h12.548v2.51h-9.86v10.4h8.067v2.331h-8.067v10.755h10.4v2.511H554.991Z" transform="translate(-383.076 -192.345)" fill="#0f0303"/>
        </g>
        <g id="Group_18" data-name="Group 18" transform="translate(72.267 74.677)">
          <ellipse id="Ellipse_7" data-name="Ellipse 7" cx="18.954" cy="18.739" rx="18.954" ry="18.739" transform="translate(0.101)" fill="#fff"/>
          <path id="Path_28" data-name="Path 28" d="M284.144,336.314c-11.057,0-19.069,8.115-19.069,18.511A18.471,18.471,0,0,0,279.3,373.2c2.255-1.78,5.542-5.506,5.3-10.471a.42.42,0,0,0-.144-.352c-.133-.1-.478-.021-.478-.021a52.933,52.933,0,0,1-6.384.951q.343-.775.625-1.574a.728.728,0,0,0,.018-.446.911.911,0,0,0-.281-.341,23.591,23.591,0,0,1-6.407-6.4,8.93,8.93,0,0,0,1.448-.1s.131,0,.123-.238c0-.165-.048-.444-.048-.444-.272-1.4-.485-2.809-.656-4.188a17.563,17.563,0,0,0,2.823,1.576s.343.153.5.073c.128-.066.2-.453.2-.453.114-.487.231-.981.366-1.473a22.96,22.96,0,0,0,2.82,3.614.526.526,0,0,0,.668.082c.252-.19.046-.839.048-.839a20.976,20.976,0,0,1-.776-6.853c.51.373,1.034.732,1.578,1.073a.516.516,0,0,0,.521.025,1.15,1.15,0,0,0,.419-.382,18.759,18.759,0,0,1,3.786-4.113,9.64,9.64,0,0,0,.558,4.06.583.583,0,0,0,.3.343.732.732,0,0,0,.579-.032q1.088-.467,2.216-.869a18.217,18.217,0,0,0-1.576,6.1s-.08.627.24.775a.6.6,0,0,0,.7-.137,24.185,24.185,0,0,1,3.054-3.092c.137.453.286.913.439,1.377,0,0,.1.366.27.464a1.513,1.513,0,0,0,.627.094,14.308,14.308,0,0,1,3.833.377c-.476,1.08-.91,2.175-1.29,3.314a2.7,2.7,0,0,0-.078.389.38.38,0,0,0,.117.329,19.257,19.257,0,0,1,1.386,1.384,15.659,15.659,0,0,0-5.6,3.612.85.85,0,0,0-.22.361,1.224,1.224,0,0,0,.025.506c.148.622.274,1.251.377,1.883a28.134,28.134,0,0,0-5.387-.878c.165.011-.327-.039-.467.08a.529.529,0,0,0-.169.373,16.952,16.952,0,0,1-4.156,10.839,20.968,20.968,0,0,0,2.992.233,18.587,18.587,0,0,0,19.069-18.966c0-10.4-8.015-18.511-19.069-18.511" transform="translate(-265.075 -336.314)" fill="#e3001b"/>
        </g>
      </g>
      <line id="Line_12" data-name="Line 12" y2="136.143" transform="translate(-1550.487 -520.5)" fill="none" stroke="#000" stroke-width="3"/>
      <g id="Group_115" data-name="Group 115" transform="translate(-1948.127 -1027.164)">
        <g id="Group_114" data-name="Group 114" transform="translate(45.962 520.164)">
          <g id="Group_113" data-name="Group 113" transform="translate(0 13.709)">
            <path id="Path_232" data-name="Path 232" d="M92.146,613.253H88.54q-2.584,0-5.945-.025t-7.163-.025q-3.8,0-7.164-.024t-5.968-.024H58.717q-3.168,0-6.237.048t-6.237.049v-.878l5.8-.1q1.122,0,1.414-.659a3.257,3.257,0,0,0,.292-1.34v-63.2a3.27,3.27,0,0,0-.292-1.34q-.292-.658-1.414-.658l-5.8-.1V544.1q3.167,0,6.237.049t6.237.049q3.021,0,6.14-.049T71,544.1v.878l-5.7.1q-1.121,0-1.413.658a3.26,3.26,0,0,0-.292,1.34v63.2a3.247,3.247,0,0,0,.292,1.34q.293.659,1.413.659H76.162a10.734,10.734,0,0,0,3.8-.659,13.724,13.724,0,0,0,3.264-1.753,14.566,14.566,0,0,0,2.681-2.51,20.1,20.1,0,0,0,2.046-2.972,29.078,29.078,0,0,0,1.585-3.461q.755-1.947,1.364-3.9t1.047-3.606q.438-1.657.682-2.535h.925Z" transform="translate(-46.242 -542.691)" fill="#1a1818"/>
            <path id="Path_233" data-name="Path 233" d="M142.67,576.608a37.318,37.318,0,0,0,7.626-.659,12.14,12.14,0,0,0,5.092-2.24,10.085,10.085,0,0,0,3.07-4.265,28.47,28.47,0,0,0,1.608-6.774h.975v28.7H159.97a24.019,24.019,0,0,0-2.023-7.479,10.507,10.507,0,0,0-3.533-4.167,11.966,11.966,0,0,0-5.068-1.8,51.155,51.155,0,0,0-6.676-.389v32.746a3.265,3.265,0,0,0,.292,1.34q.292.658,1.413.658h13.157a8.97,8.97,0,0,0,3.631-.755,13.24,13.24,0,0,0,3.192-1.974,17.355,17.355,0,0,0,2.631-2.729,25.175,25.175,0,0,0,2.047-3.07,29.734,29.734,0,0,0,1.608-3.363q.779-1.9,1.413-3.728t1.073-3.386q.439-1.56.585-2.388h1.023l-.829,22.368H162.382q-4.9,0-8.5-.025t-6.14-.025q-2.534,0-4.337-.024t-3.118-.025H137.8q-3.168,0-6.237.049t-6.238.049v-.877l5.8-.1q1.12,0,1.413-.658a3.264,3.264,0,0,0,.292-1.34v-63.2a3.268,3.268,0,0,0-.292-1.34q-.292-.658-1.413-.658l-5.8-.1V544.1q3.167,0,6.238.049t6.237.049h2.461q1.34,0,3.168-.024t4.288-.025q2.461,0,5.848-.024t7.846-.025h10.306l.731,19.151h-1.023q-.147-.828-.44-2.071t-.73-2.68q-.439-1.436-1.023-2.948a25.866,25.866,0,0,0-1.316-2.875,24.147,24.147,0,0,0-1.853-2.875,17.489,17.489,0,0,0-2.168-2.412,11.438,11.438,0,0,0-2.339-1.681,4.936,4.936,0,0,0-2.315-.634H144.376q-1.121,0-1.413.658a3.268,3.268,0,0,0-.292,1.34Z" transform="translate(-75.371 -542.691)" fill="#1a1818"/>
            <path id="Path_234" data-name="Path 234" d="M259.4,606.435a20.335,20.335,0,0,1-4.239,2.9,37.775,37.775,0,0,1-5.458,2.34,44.358,44.358,0,0,1-5.97,1.583,30.674,30.674,0,0,1-5.775.585,25.886,25.886,0,0,1-8.772-1.414,23.148,23.148,0,0,1-6.992-3.923,25.648,25.648,0,0,1-5.263-5.945,37.221,37.221,0,0,1-3.679-7.431,44.022,44.022,0,0,1-2.144-8.382,57.61,57.61,0,0,1-.682-8.869,50.572,50.572,0,0,1,.755-8.65,46.845,46.845,0,0,1,2.242-8.357,36.482,36.482,0,0,1,3.777-7.455,28.475,28.475,0,0,1,5.336-6.043,23.4,23.4,0,0,1,6.9-4.044,23.827,23.827,0,0,1,8.527-1.463,27.108,27.108,0,0,1,6.189.634,36.642,36.642,0,0,1,4.7,1.414q2.021.78,3.509,1.413a6.872,6.872,0,0,0,2.655.634,1.094,1.094,0,0,0,.829-.366,3.8,3.8,0,0,0,.585-.828,6.663,6.663,0,0,0,.414-.975c.112-.341.2-.609.268-.8h.877v20.856h-.877q-.585-2.095-1.364-4.507a43.74,43.74,0,0,0-1.852-4.751,34.891,34.891,0,0,0-2.486-4.507,18.356,18.356,0,0,0-3.314-3.825,15.16,15.16,0,0,0-4.312-2.631,14.392,14.392,0,0,0-5.434-.975,12.347,12.347,0,0,0-5.506,1.194,13.6,13.6,0,0,0-4.288,3.314,20.067,20.067,0,0,0-3.144,4.97,31.442,31.442,0,0,0-2.022,6.116q-.342,1.511-.682,3.363t-.61,4.239q-.268,2.389-.438,5.361t-.171,6.676a93.385,93.385,0,0,0,.682,12.524q.682,4.873,1.218,7.26a33.249,33.249,0,0,0,1.949,6.116,17.944,17.944,0,0,0,3.046,4.849,13.164,13.164,0,0,0,4.362,3.216,13.931,13.931,0,0,0,5.9,1.17,15.807,15.807,0,0,0,3.241-.365,18.758,18.758,0,0,0,3.314-1.024,12.06,12.06,0,0,0,2.753-1.56,4.559,4.559,0,0,0,1.56-1.925V587.772a4.857,4.857,0,0,0-.049-.682,1.753,1.753,0,0,0-.219-.634,1.362,1.362,0,0,0-.512-.487,1.761,1.761,0,0,0-.877-.2l-5.8-.1V584.8q3.168,0,6.238.049t6.238.049q3.022,0,6.043-.049t6.042-.049v.877l-5.506.1q-1.121,0-1.414.659a3.259,3.259,0,0,0-.292,1.34Z" transform="translate(-106.718 -541.867)" fill="#1a1818"/>
            <path id="Path_235" data-name="Path 235" d="M317.038,610.281a3.277,3.277,0,0,0,.292,1.341q.292.657,1.414.658l5.8.1v.878q-3.021,0-6.189-.049t-6.188-.048q-3.168,0-6.237.048t-6.237.049v-.878l5.8-.1q1.121,0,1.414-.658a3.277,3.277,0,0,0,.292-1.341v-63.2a3.28,3.28,0,0,0-.292-1.34q-.293-.657-1.414-.658l-5.8-.1V544.1q3.166,0,6.237.049t6.237.049q3.021,0,6.188-.049t6.189-.049v.877l-5.8.1q-1.122,0-1.414.658a3.281,3.281,0,0,0-.292,1.34Z" transform="translate(-139.601 -542.691)" fill="#1a1818"/>
            <path id="Path_236" data-name="Path 236" d="M394.438,577.879a54.859,54.859,0,0,1-1.754,14.18,35.983,35.983,0,0,1-5.117,11.4,24.912,24.912,0,0,1-8.309,7.6,22.645,22.645,0,0,1-11.281,2.777,22.931,22.931,0,0,1-8.235-1.414,21.934,21.934,0,0,1-6.6-3.923,25.971,25.971,0,0,1-5.044-5.945,37.753,37.753,0,0,1-3.557-7.431,46.5,46.5,0,0,1-2.1-8.382,57.528,57.528,0,0,1-.682-8.869,56.491,56.491,0,0,1,.707-8.918,47.675,47.675,0,0,1,2.119-8.431,37.141,37.141,0,0,1,3.557-7.407,25.934,25.934,0,0,1,5.068-5.921,23.509,23.509,0,0,1,26.046-2.534,25.064,25.064,0,0,1,8.309,7.651,36.29,36.29,0,0,1,5.117,11.427,54.665,54.665,0,0,1,1.754,14.132m-10.964,0a122.737,122.737,0,0,0-.512-12.3q-.511-4.946-1.1-8.114a26.648,26.648,0,0,0-1.778-6.043,17.7,17.7,0,0,0-2.924-4.678,12.264,12.264,0,0,0-4.046-3.021,12.089,12.089,0,0,0-5.14-1.072,11.271,11.271,0,0,0-5.02,1.1,12.813,12.813,0,0,0-3.971,3.045,17.184,17.184,0,0,0-2.9,4.679,27.47,27.47,0,0,0-1.754,5.994q-.634,3.216-1.121,8.089t-.488,12.328a119.493,119.493,0,0,0,.561,12.767q.559,5.069,1.047,7.6a28.669,28.669,0,0,0,1.8,6.018,17.605,17.605,0,0,0,2.875,4.654,12.213,12.213,0,0,0,3.947,3.022,11.506,11.506,0,0,0,5.02,1.072,11.841,11.841,0,0,0,5.14-1.1,12.393,12.393,0,0,0,4.046-3.07,18.237,18.237,0,0,0,2.924-4.677,26.344,26.344,0,0,0,1.778-5.922q.439-2.339,1.023-7.553a117.878,117.878,0,0,0,.585-12.817" transform="translate(-155.098 -541.867)" fill="#1a1818"/>
            <path id="Path_237" data-name="Path 237" d="M475.516,614.033h-1.9l-37.23-66.371v60.279a4.271,4.271,0,0,0,1.1,3.118,3.89,3.89,0,0,0,2.607,1.219l3.8.1v.877q-1.56,0-3.29-.049t-4.7-.049q-3.169,0-5.044.049t-3.143.049v-.877l3.7-.1a3.888,3.888,0,0,0,2.607-1.219,4.266,4.266,0,0,0,1.1-3.118V547.078a3.279,3.279,0,0,0-.292-1.34q-.293-.658-1.414-.658l-5.7-.1V544.1q1.169,0,2.242.025t2.218.024q1.144,0,2.412.025t2.827.024q1.509,0,2.534-.024t1.9-.025q.877,0,1.705-.024t1.949-.025l28.7,51.166v-45.9a4.262,4.262,0,0,0-1.073-3.07,3.8,3.8,0,0,0-2.582-1.219l-3.8-.1V544.1q.877,0,1.657.025c.519.016,1.088.024,1.7.024s1.292.008,2.023.025,1.6.024,2.607.024q3.118,0,4.946-.049t3.241-.049v.877l-3.7.1a3.888,3.888,0,0,0-2.607,1.219,4.2,4.2,0,0,0-1.1,3.07Z" transform="translate(-186.758 -542.691)" fill="#1a1818"/>
          </g>
          <path id="Path_238" data-name="Path 238" d="M158.662,532.427l5.963-12.263H171.3v.474l-12.162,11.789Z" transform="translate(-87.652 -520.164)" fill="#1a1818"/>
        </g>
        <text id="REVUE_D_HISTOIRE_MILITAIRE_DU_CANADA" data-name="REVUE D’HISTOIRE MILITAIRE DU CANADA" transform="translate(45.483 624.209)" fill="#1a1818" font-size="16" font-family="Stilson-Regular, Stilson" letter-spacing="0.02em"><tspan x="0" y="0">REVUE D’HISTOIRE MILITAIRE DU CANADA</tspan></text>
      </g>
    </g>
  </g>
</svg>
