<svg xmlns="http://www.w3.org/2000/svg" width="396.744" height="159.854" viewBox="0 0 396.744 159.854">
  <g id="Group_91" data-name="Group 91" transform="translate(-1478.979 -367.027)">
    <g id="Group_90" data-name="Group 90">
      <g id="Group_86" data-name="Group 86">
        <path id="Path_142" data-name="Path 142" d="M1478.978,473.6l53.531-26.642-53.531-26.642Z" fill="#49575e"/>
        <path id="Path_143" data-name="Path 143" d="M1532.51,500.238,1478.978,473.6l53.531-26.642Z" fill="#ffb932"/>
        <path id="Path_144" data-name="Path 144" d="M1532.51,446.954l-53.531-26.642,53.531-26.642Z" fill="#004963"/>
        <path id="Path_145" data-name="Path 145" d="M1532.51,446.954l53.531-26.642L1532.51,393.67Z" fill="#6c001c"/>
        <path id="Path_146" data-name="Path 146" d="M1586.041,420.312,1532.51,393.67l53.531-26.642Z" fill="#8e461a"/>
        <path id="Path_147" data-name="Path 147" d="M1532.51,500.238l53.531-26.642-53.531-26.642Z" fill="#1b5b45"/>
        <path id="Path_148" data-name="Path 148" d="M1586.041,526.881l-53.531-26.642,53.531-26.642Z" fill="#3770b7"/>
      </g>
      <g id="Group_89" data-name="Group 89">
        <g id="Group_87" data-name="Group 87">
          <path id="Path_149" data-name="Path 149" d="M1641.354,462a6.166,6.166,0,0,1-.258-.616,4.957,4.957,0,0,0-.358-.756,2.5,2.5,0,0,0-.517-.637,1.033,1.033,0,0,0-.7-.258,3.78,3.78,0,0,0-1.552.556,27.73,27.73,0,0,1-6.425,2.407,20.689,20.689,0,0,1-4.953.537,22.046,22.046,0,0,1-7.38-1.173,20.313,20.313,0,0,1-5.908-3.223,20.984,20.984,0,0,1-4.455-4.853,29.3,29.3,0,0,1-3.084-6.067,37.055,37.055,0,0,1-1.81-6.842,43.925,43.925,0,0,1,0-14.422,35.956,35.956,0,0,1,1.831-6.862,29.982,29.982,0,0,1,3.1-6.068,21.256,21.256,0,0,1,4.436-4.853,20.305,20.305,0,0,1,5.808-3.223,21.123,21.123,0,0,1,7.22-1.173,20,20,0,0,1,4.953.557,29.815,29.815,0,0,1,3.779,1.213q1.612.657,2.646,1.194a3.866,3.866,0,0,0,1.551.537,1.024,1.024,0,0,0,.7-.259,2.449,2.449,0,0,0,.517-.637,4.826,4.826,0,0,0,.358-.755q.139-.378.219-.617h2.307v17.107H1641q-.954-2.9-2.068-5.789a23.345,23.345,0,0,0-2.765-5.191,13.89,13.89,0,0,0-3.939-3.74,10.252,10.252,0,0,0-5.55-1.432,8.91,8.91,0,0,0-7.061,2.824q-2.487,2.826-3.2,8.355-.2,1.353-.378,2.884t-.338,3.442q-.159,1.909-.258,4.3t-.1,5.41q0,3.105.12,5.471t.278,4.237q.159,1.87.338,3.361t.338,2.845q.676,5.689,3.183,8.453t7.32,2.766a9.894,9.894,0,0,0,5.649-1.552,14.082,14.082,0,0,0,3.919-4,25.936,25.936,0,0,0,2.705-5.47q1.095-3.023,2.049-5.928h2.387V462Z" fill="#fff"/>
          <path id="Path_150" data-name="Path 150" d="M1670.276,462v-2.347h6.207l-4.894-15.913H1656.75l-4.973,15.913h6.366V462h-14.521v-2.347h5.132l16.947-54.343h4.973l16.709,54.343h5.132V462Zm-6.047-42.289-6.763,21.682h13.367Z" fill="#fff"/>
          <path id="Path_151" data-name="Path 151" d="M1733.3,407.9v54.741H1727.1l-27.53-50.921v47.938h6.286V462h-15.317v-2.347h6.008V407.9h-6.008V405.55h17.584l22.16,40.579V407.9h-6.286V405.55h15.317V407.9Z" fill="#fff"/>
          <path id="Path_152" data-name="Path 152" d="M1782.672,407.9l-16.867,54.344h-5.132L1743.884,407.9h-5.132V405.55h22.4V407.9h-6.166l12.373,39.863L1779.57,407.9h-6.246V405.55h14.48V407.9Z" fill="#fff"/>
          <path id="Path_153" data-name="Path 153" d="M1828.7,462h-41.216v-2.347h6.008V407.9h-6.008V405.55h39.9l.557,15.794h-2.268q-.118-.636-.358-1.512t-.6-1.89q-.359-1.014-.835-2.128t-1.074-2.227a14.479,14.479,0,0,0-1.572-2.248,12.037,12.037,0,0,0-1.89-1.81,9.662,9.662,0,0,0-2.008-1.194,4.872,4.872,0,0,0-1.93-.438h-11.179V431.29a31.947,31.947,0,0,0,5.789-.418,6.627,6.627,0,0,0,3.4-1.591,7.069,7.069,0,0,0,1.83-3.242,41.19,41.19,0,0,0,1.074-5.411h2.268v23.711h-2.348a31.114,31.114,0,0,0-1.411-6.008,7.042,7.042,0,0,0-2.169-3.183,6.782,6.782,0,0,0-3.4-1.273,44.625,44.625,0,0,0-5.033-.238v26.018h9.787a10.138,10.138,0,0,0,2.983-.438,10.692,10.692,0,0,0,2.646-1.213,11.642,11.642,0,0,0,2.208-1.83,11.775,11.775,0,0,0,1.71-2.327q.677-1.233,1.334-2.725t1.193-2.944q.537-1.453.915-2.686t.537-1.909h2.307Z" fill="#fff"/>
          <path id="Path_154" data-name="Path 154" d="M1873.455,421.264a30.7,30.7,0,0,0-1.115-3.341,36.753,36.753,0,0,0-1.988-4.217,12.546,12.546,0,0,0-1.632-2.307,13.091,13.091,0,0,0-2.008-1.851,10.647,10.647,0,0,0-2.07-1.213,4.713,4.713,0,0,0-1.849-.438h-4.416v51.758h6.206V462h-22.994v-2.347h6.046V407.9h-4.416a4.857,4.857,0,0,0-1.869.438,9.878,9.878,0,0,0-2.069,1.213,13.509,13.509,0,0,0-1.989,1.851,12.5,12.5,0,0,0-1.632,2.307q-.477.915-.994,1.989t-.934,2.128q-.419,1.055-.737,1.95a11.1,11.1,0,0,0-.437,1.491h-2.307l.994-15.714h43.522l.955,15.714Z" fill="#fff"/>
        </g>
        <g id="Group_88" data-name="Group 88">
          <path id="Path_155" data-name="Path 155" d="M1652.523,487.848h2.082V474.566h-2.082v-1.312h7.241a6.467,6.467,0,0,1,2.715.453,4.958,4.958,0,0,1-.339,8.847,7.251,7.251,0,0,1-2.353.317h-3.6v4.977h2.081v1.313h-5.747Zm7.105-6.335a4.953,4.953,0,0,0,1.923-.317,3.61,3.61,0,0,0,.227-6.2,5.452,5.452,0,0,0-2.15-.386h-3.439v6.9Z" fill="#fff"/>
          <path id="Path_156" data-name="Path 156" d="M1668.908,474.566h-2.081v-1.312h5.747v1.312h-2.082v8.712a5.466,5.466,0,0,0,.7,2.918,4.328,4.328,0,0,0,3.824,1.788,4.247,4.247,0,0,0,3.823-1.855,5.652,5.652,0,0,0,.7-2.9v-8.667h-2.082v-1.312h5.748v1.312h-2.082V483.3a6.683,6.683,0,0,1-1.018,3.757,6.673,6.673,0,0,1-10.228-.023,6.474,6.474,0,0,1-.973-3.734Z" fill="#fff"/>
          <path id="Path_157" data-name="Path 157" d="M1685.43,487.848h2.082V474.566h-2.082v-1.312h7.173a5.828,5.828,0,0,1,2.737.544,3.739,3.739,0,0,1,1.946,3.484,3.679,3.679,0,0,1-2.036,3.439v.045a3.881,3.881,0,0,1,2.67,3.915,4.325,4.325,0,0,1-2.693,4.14,6.724,6.724,0,0,1-2.376.34h-7.421Zm7.535-7.693a2.59,2.59,0,0,0,2.692-2.783,2.682,2.682,0,0,0-1.154-2.353,3.7,3.7,0,0,0-1.9-.408h-3.508v5.544Zm-.068,7.648a4.665,4.665,0,0,0,1.651-.248,3.2,3.2,0,0,0-1.4-6.042h-4.051v6.29Z" fill="#fff"/>
          <path id="Path_158" data-name="Path 158" d="M1700.842,487.848h2.082V474.611h-2.082v-1.357h5.747v1.357h-2.081V487.8h6.358v-2.647h1.448v4.005h-11.472Z" fill="#fff"/>
          <path id="Path_159" data-name="Path 159" d="M1714.489,487.848h2.082V474.566h-2.082v-1.312h5.748v1.312h-2.082v13.282h2.082v1.313h-5.748Z" fill="#fff"/>
          <path id="Path_160" data-name="Path 160" d="M1730.828,472.983c1.924,0,5.928.724,5.928,3.167v1.7h-1.516v-1.266c0-1.562-2.715-2.173-4.344-2.173a6.389,6.389,0,0,0-6.471,6.653c0,3.959,2.783,6.945,6.561,6.945,1.29,0,4.5-.5,4.5-2.172V484.59h1.516v1.7c0,2.308-3.869,3.145-6.063,3.145a8.089,8.089,0,0,1-8.169-8.327A7.933,7.933,0,0,1,1730.828,472.983Z" fill="#fff"/>
          <path id="Path_161" data-name="Path 161" d="M1738.842,487.848h1.629l5.362-14.594h1.743l5.362,14.594h1.629v1.313h-5.091v-1.313h1.833l-1.516-4.1h-6.2l-1.493,4.1h1.832v1.313h-5.09Zm10.521-5.43-2.376-6.517a5.939,5.939,0,0,1-.249-1.017h-.067a4.842,4.842,0,0,1-.227,1.017l-2.421,6.517Z" fill="#fff"/>
          <path id="Path_162" data-name="Path 162" d="M1758.373,487.848h2.082V474.611H1756v2.58h-1.425v-3.937h13.35v3.937h-1.448v-2.58h-4.435v13.237h2.081v1.313h-5.747Z" fill="#fff"/>
          <path id="Path_163" data-name="Path 163" d="M1770.119,487.848h2.082V474.566h-2.082v-1.312h5.748v1.312h-2.083v13.282h2.083v1.313h-5.748Z" fill="#fff"/>
          <path id="Path_164" data-name="Path 164" d="M1786.5,472.983a8.045,8.045,0,0,1,8.124,8.122,8.115,8.115,0,1,1-16.224,0A8.04,8.04,0,0,1,1786.5,472.983Zm0,15a6.626,6.626,0,0,0,6.472-6.879,6.463,6.463,0,1,0-12.92,0A6.622,6.622,0,0,0,1786.5,487.984Z" fill="#fff"/>
          <path id="Path_165" data-name="Path 165" d="M1797.165,487.848h2.081V474.566h-2.081v-1.312h3.62l8.915,12.558a8.066,8.066,0,0,1,.475.973h.045a7.732,7.732,0,0,1-.067-1.109v-11.11h-2.1v-1.312h5.77v1.312h-2.082v14.6H1810.2l-8.915-12.558a7.987,7.987,0,0,1-.476-.973h-.045a7.617,7.617,0,0,1,.069,1.086v11.132h2.1v1.313h-5.77Z" fill="#fff"/>
          <path id="Path_166" data-name="Path 166" d="M1817.9,484.726v1.154c0,1.335,1.651,2.1,3.483,2.1,2.06,0,3.553-1.018,3.553-2.874,0-2.081-1.923-2.8-3.982-3.574-2.081-.793-4.254-1.63-4.254-4.413s2.24-4.14,4.842-4.14c2.263,0,4.594.882,4.594,2.489v1.7h-1.517v-1.177c0-1.019-1.651-1.561-3.077-1.561-1.81,0-3.213.882-3.213,2.579,0,1.923,1.719,2.534,3.643,3.282,2.308.859,4.593,1.741,4.593,4.66,0,2.806-2.24,4.48-5.182,4.48-2.284,0-5-1.018-5-3.19v-1.516Z" fill="#fff"/>
        </g>
      </g>
    </g>
  </g>
</svg>
