<svg xmlns="http://www.w3.org/2000/svg" width="544.705" height="31.422" viewBox="0 0 544.705 31.422">
  <g id="Group_75" data-name="Group 75" transform="translate(-1582.777 1512.672)">
    <g id="Group_73" data-name="Group 73" transform="translate(1582.777 -1512.672)">
      <path id="Path_114" data-name="Path 114" d="M1595.384-1511.209a10.86,10.86,0,0,1,7.06,2.427l-1.229,2.458a9.3,9.3,0,0,0-5.862-2.206c-6.083,0-9.644,5.421-9.644,12.512,0,7.123,3.656,12.985,9.55,12.985a10.723,10.723,0,0,0,6.587-2.427l1.1,2.427a11.888,11.888,0,0,1-7.784,2.679c-7.722,0-12.386-6.839-12.386-15.569C1582.777-1504.717,1587.473-1511.209,1595.384-1511.209Z" transform="translate(-1582.777 1511.745)" fill="#1a1718"/>
      <path id="Path_115" data-name="Path 115" d="M1660.522-1509.832h3.057l8.32,29.846H1669l-2.584-9.518h-8.7l-2.584,9.518h-2.9Zm5.326,17.807-2.931-10.81c-.378-1.387-.82-3.908-.82-3.908h-.126s-.41,2.459-.819,3.908l-2.931,10.81Z" transform="translate(-1626.799 1510.872)" fill="#1a1718"/>
      <path id="Path_116" data-name="Path 116" d="M1726.025-1509.832h2.9l11.094,21.116a34.578,34.578,0,0,1,1.7,3.908h.094s-.221-2.427-.221-4v-21.022h2.711v29.846h-2.9l-11.094-21.242c-.756-1.513-1.67-3.939-1.67-3.939h-.095s.221,2.458.221,4.034v21.148h-2.774v-29.846Z" transform="translate(-1673.549 1510.872)" fill="#1a1718"/>
      <path id="Path_117" data-name="Path 117" d="M1804.513-1509.832h3.057l8.321,29.846h-2.9l-2.584-9.518h-8.7l-2.584,9.518h-2.9Zm5.358,17.807-2.931-10.81c-.378-1.387-.82-3.908-.82-3.908h-.126s-.41,2.459-.82,3.908l-2.931,10.81Z" transform="translate(-1718.062 1510.872)" fill="#1a1718"/>
      <path id="Path_118" data-name="Path 118" d="M1870.156-1509.832h7.627c7,0,11.661,5.484,11.661,14.907,0,9.518-4.665,14.939-11.661,14.939h-7.627Zm7.375,27.262c5.421,0,8.951-4.318,8.951-12.354,0-7.942-3.53-12.323-8.951-12.323h-4.538v24.678Z" transform="translate(-1764.921 1510.872)" fill="#1a1718"/>
      <path id="Path_119" data-name="Path 119" d="M1946.093-1509.832h3.057l8.32,29.846h-2.9l-2.584-9.518h-8.7l-2.584,9.518h-2.9Zm5.358,17.807-2.931-10.81c-.378-1.387-.819-3.908-.819-3.908h-.126s-.41,2.459-.819,3.908l-2.931,10.81Z" transform="translate(-1807.797 1510.872)" fill="#1a1718"/>
      <path id="Path_120" data-name="Path 120" d="M2005.8-1511.037h2.774l-1.954,7.312h-2.111Z" transform="translate(-1850.074 1511.636)" fill="#1a1718"/>
      <path id="Path_121" data-name="Path 121" d="M2034.9-1485.523a8.057,8.057,0,0,0,5.61,2.49c2.9,0,4.885-1.986,4.885-5.169,0-7.218-11.251-6.461-11.251-15.191,0-4.318,2.931-7.816,8.037-7.816a10.445,10.445,0,0,1,5.957,1.828l-1.1,2.553a8.822,8.822,0,0,0-4.854-1.7,4.848,4.848,0,0,0-5.106,5.137c0,6.871,11.251,5.988,11.251,15.033,0,4.539-2.8,8.037-7.816,8.037a10.193,10.193,0,0,1-7-2.773Z" transform="translate(-1868.457 1511.745)" fill="#1a1718"/>
      <path id="Path_122" data-name="Path 122" d="M2128.788-1509.832h2.805v20.391c0,4.854,2.427,7.312,6.114,7.312s6.146-2.458,6.146-7.375v-20.3h2.837v20.454c0,6.272-3.593,9.9-8.951,9.9s-8.951-3.593-8.951-9.9Z" transform="translate(-1928.845 1510.872)" fill="#1a1718"/>
      <path id="Path_123" data-name="Path 123" d="M2206.506-1509.832h2.836v27.262h10.5v2.584h-13.332Z" transform="translate(-1978.104 1510.872)" fill="#1a1718"/>
      <path id="Path_124" data-name="Path 124" d="M2256.231-1507.365h-8.068v-2.553h18.973v2.553h-8.1v27.325h-2.8Z" transform="translate(-2004.506 1510.927)" fill="#1a1718"/>
      <path id="Path_125" data-name="Path 125" d="M2322.095-1509.832h2.836v29.846h-2.836Z" transform="translate(-2051.365 1510.872)" fill="#1a1718"/>
      <path id="Path_126" data-name="Path 126" d="M2358.671-1509.832h3.057l5.641,17.082c.473,1.576,1.072,4,1.072,4h.094s.536-2.427,1.009-4l5.61-17.082h3.057l1.86,29.846h-2.679l-1.261-20.8c-.095-1.67-.032-4.129-.032-4.129h-.094s-.6,2.9-1.135,4.444l-4.979,14.908h-2.837l-5.011-14.908c-.5-1.513-1.135-4.538-1.135-4.538h-.094s0,2.553-.094,4.192l-1.229,20.8h-2.71Z" transform="translate(-2073.349 1510.872)" fill="#1a1718"/>
      <path id="Path_127" data-name="Path 127" d="M2448.554-1509.832h3.057l8.321,29.846h-2.9l-2.584-9.518h-8.7l-2.584,9.518h-2.9Zm5.358,17.807-2.931-10.81c-.378-1.387-.82-3.908-.82-3.908h-.126s-.41,2.459-.82,3.908l-2.931,10.81Z" transform="translate(-2126.263 1510.872)" fill="#1a1718"/>
      <path id="Path_128" data-name="Path 128" d="M2510.99-1507.365h-8.068v-2.553H2521.9v2.553h-8.1v27.325h-2.805Z" transform="translate(-2165.976 1510.927)" fill="#1a1718"/>
      <path id="Path_129" data-name="Path 129" d="M2576.8-1509.832h13.237v2.553h-10.4v10.968h8.447v2.553h-8.447v11.22h10.936v2.585h-13.8v-29.878Z" transform="translate(-2212.779 1510.872)" fill="#1a1718"/>
      <path id="Path_130" data-name="Path 130" d="M2675.784-1492.565v2.238c0,1.576,1.986,2.458,4.381,2.458s4.066-.851,4.066-2.458c0-2.332-3.341-3.057-6.555-4.318-4.129-1.576-7.974-3.562-7.974-9.14,0-6.745,5.515-8.888,10.9-8.888,5.169,0,10.306,1.954,10.306,5.83v4.507H2684.1v-1.923c0-1.2-1.607-1.828-3.53-1.828-1.733,0-3.278.5-3.278,2.08,0,2.08,2.522,2.963,5.263,3.94,4.633,1.608,9.266,3.53,9.266,9.266,0,6.934-5.957,9.518-11.724,9.518-5.642,0-11.157-2.521-11.157-7.375v-3.908Z" transform="translate(-2271.203 1512.672)" fill="#1a1718"/>
      <path id="Path_131" data-name="Path 131" d="M2745.387-1486.374h3.4v-18.879H2745.2v4.286h-6.366v-10.243h27.546v10.243h-6.367v-4.286h-3.593v18.879h3.4v5.515h-14.4v-5.515Z" transform="translate(-2315.498 1511.745)" fill="#1a1718"/>
      <path id="Path_132" data-name="Path 132" d="M2915.1-1486.374h3.4v-19.32h-3.4v-5.515h13.71a22.5,22.5,0,0,1,6.083.6c3.656,1.1,6.083,4.066,6.083,8.541a8.9,8.9,0,0,1-4.917,8.321v.094a4.08,4.08,0,0,1,1.86,1.828l2.332,4.507a1.9,1.9,0,0,0,1.955.977h1.071v5.484h-5.011c-2.458,0-3.435-.6-4.286-2.237l-3.687-7.091c-.5-.977-1.072-1.324-2.647-1.324h-1.513v5.137h3.183v5.515h-14.183v-5.515Zm14.435-11.094c2.364,0,3.876-1.2,3.876-3.939,0-1.387-.347-2.711-1.67-3.341a6.715,6.715,0,0,0-2.931-.5h-2.71v7.816h3.436Z" transform="translate(-2427.217 1511.745)" fill="#1a1718"/>
      <path id="Path_133" data-name="Path 133" d="M3001.415-1486.374h3.4v-6.934l-7.438-12.386H2994.8v-5.515h12.575v5.515h-2.553l3.089,5.61a10.571,10.571,0,0,1,.693,1.482h.095a10.606,10.606,0,0,1,.693-1.482l3.089-5.61h-2.553v-5.515h12.512v5.515h-2.584l-7.438,12.386v6.934h3.4v5.515h-14.4v-5.515Z" transform="translate(-2477.731 1511.745)" fill="#1a1718"/>
    </g>
    <g id="Group_74" data-name="Group 74" transform="translate(2035.617 -1512.672)">
      <ellipse id="Ellipse_9" data-name="Ellipse 9" cx="15.892" cy="15.711" rx="15.892" ry="15.711" transform="translate(0.085)" fill="#fff"/>
      <path id="Path_134" data-name="Path 134" d="M2835.4-1512.672c-9.271,0-15.988,6.8-15.988,15.52a15.486,15.486,0,0,0,11.923,15.409c1.891-1.492,4.646-4.616,4.441-8.78a.353.353,0,0,0-.121-.3c-.111-.082-.4-.017-.4-.017a44.356,44.356,0,0,1-5.353.8q.288-.65.523-1.319a.61.61,0,0,0,.016-.374.765.765,0,0,0-.236-.286,19.781,19.781,0,0,1-5.372-5.366,7.525,7.525,0,0,0,1.214-.084s.109,0,.1-.2c0-.138-.041-.372-.041-.372-.228-1.174-.406-2.355-.55-3.511a14.765,14.765,0,0,0,2.366,1.322s.288.128.418.061c.107-.056.17-.38.17-.38.1-.408.194-.823.307-1.235a19.238,19.238,0,0,0,2.364,3.03.441.441,0,0,0,.56.069c.211-.159.039-.7.041-.7a17.583,17.583,0,0,1-.65-5.745c.428.312.867.613,1.323.9a.433.433,0,0,0,.437.021.964.964,0,0,0,.351-.32,15.7,15.7,0,0,1,3.174-3.448,8.077,8.077,0,0,0,.468,3.4.488.488,0,0,0,.255.288.613.613,0,0,0,.485-.027q.912-.392,1.858-.729a15.287,15.287,0,0,0-1.322,5.111s-.067.525.2.65a.5.5,0,0,0,.591-.115,20.286,20.286,0,0,1,2.56-2.593c.115.38.24.765.368,1.155,0,0,.086.307.226.389a1.267,1.267,0,0,0,.526.078,11.974,11.974,0,0,1,3.214.317c-.4.9-.763,1.823-1.081,2.779a2.258,2.258,0,0,0-.065.326.319.319,0,0,0,.1.276,16.228,16.228,0,0,1,1.162,1.16,13.128,13.128,0,0,0-4.695,3.028.714.714,0,0,0-.184.3,1.025,1.025,0,0,0,.021.424c.125.521.23,1.049.316,1.578a23.585,23.585,0,0,0-4.516-.736c.138.01-.274-.033-.391.067a.444.444,0,0,0-.142.313,14.212,14.212,0,0,1-3.485,9.088,17.547,17.547,0,0,0,2.508.2,15.584,15.584,0,0,0,15.988-15.9c0-8.716-6.72-15.52-15.988-15.52" transform="translate(-2819.409 1512.672)" fill="#e3001b"/>
    </g>
  </g>
</svg>
