<svg xmlns="http://www.w3.org/2000/svg" width="110.886" height="66.706" viewBox="0 0 110.886 66.706">
  <g id="Group_19" data-name="Group 19" transform="translate(-54.823 -119.051)">
    <g id="Group_3" data-name="Group 3" transform="translate(54.931 163.526)">
      <path id="Path_1" data-name="Path 1" d="M60.256,350.9v1.6c0,1.067,1.386,1.7,3.092,1.7s2.878-.64,2.878-1.7c0-1.6-2.346-2.132-4.585-3.092-2.878-1.067-5.651-2.559-5.651-6.5,0-4.8,3.945-6.291,7.677-6.291,3.625,0,7.251,1.386,7.251,4.159v3.2h-4.8v-1.387c0-.85-1.172-1.279-2.452-1.279s-2.346.32-2.346,1.493c0,1.493,1.813,2.132,3.732,2.772,3.3,1.172,6.5,2.452,6.5,6.5,0,4.9-4.159,6.717-8.316,6.717-3.945,0-7.89-1.813-7.89-5.224v-2.773l4.9.107Z" transform="translate(-55.352 -336.608)" fill="#040505"/>
      <path id="Path_2" data-name="Path 2" d="M156,356.18h2.453V342.853h-2.666v3.092h-4.479v-7.251H170.82v7.251h-4.478v-2.986h-2.559v13.328h2.452v3.945H156.106Z" transform="translate(-131.691 -338.268)" fill="#040505"/>
      <path id="Path_4" data-name="Path 4" d="M392.264,355.739h2.452V342.092h-2.452v-3.945h9.7a16.953,16.953,0,0,1,4.264.426,5.89,5.89,0,0,1,4.264,6.075,6.261,6.261,0,0,1-3.523,5.865v.107a2.516,2.516,0,0,1,1.279,1.279l1.6,3.2c.32.533.64.64,1.386.64h.746v3.945h-3.523c-1.7,0-2.452-.426-2.985-1.6l-2.666-5.012c-.32-.64-.746-.96-1.813-.96h-1.067v3.627h2.239v3.945h-9.9Zm10.236-7.783a2.478,2.478,0,0,0,2.773-2.772,2.3,2.3,0,0,0-1.172-2.346,5.006,5.006,0,0,0-2.025-.32h-1.92v5.544l2.346-.107Z" transform="translate(-323.388 -337.827)" fill="#040505"/>
      <path id="Path_5" data-name="Path 5" d="M505.334,355.763h2.452v-4.9l-5.224-8.748h-1.813v-3.94h8.85v3.945h-1.813l2.239,3.945.533,1.067h.107a3.845,3.845,0,0,1,.533-1.067l2.239-3.945h-1.814v-3.945h8.85v3.945h-1.813l-5.224,8.748v4.9h2.452v3.945H505.761v-3.945Z" transform="translate(-409.695 -337.851)" fill="#040505"/>
    </g>
    <g id="Group_2" data-name="Group 2" transform="translate(54.823 119.051)">
      <path id="Path_7" data-name="Path 7" d="M61.967,119.116a5.954,5.954,0,0,1,3.945,1.386l-.746,1.386a5.082,5.082,0,0,0-3.3-1.279c-3.412,0-5.438,3.092-5.438,7.037,0,4.052,2.025,7.356,5.438,7.356a5.97,5.97,0,0,0,3.732-1.386l.64,1.386A6.576,6.576,0,0,1,61.86,136.5c-4.374,0-7.037-3.838-7.037-8.85C54.93,122.848,57.6,119.116,61.967,119.116Z" transform="translate(-54.823 -119.102)" fill="#040505"/>
      <path id="Path_8" data-name="Path 8" d="M136.179,120.684h1.7l4.691,16.847h-1.594l-1.493-5.331h-4.9l-1.493,5.331h-1.6Zm2.985,10.022-1.7-6.075c-.214-.746-.426-2.239-.426-2.239h-.107s-.214,1.386-.426,2.239l-1.7,6.075Z" transform="translate(-115.815 -120.35)" fill="#040505"/>
      <path id="Path_9" data-name="Path 9" d="M211.809,120.684h1.7l6.291,11.942c.426.85.96,2.239.96,2.239h0s-.107-1.386-.107-2.239V120.684h1.493v16.847h-1.59l-6.291-11.942c-.426-.85-.96-2.239-.96-2.239h0s.107,1.386.107,2.239v11.942h-1.6Z" transform="translate(-179.716 -120.35)" fill="#040505"/>
      <path id="Path_10" data-name="Path 10" d="M293.688,120.684h1.7l4.691,16.847h-1.594l-1.493-5.331h-4.9l-1.493,5.331H289Zm2.985,10.022-1.7-6.075c-.214-.746-.426-2.239-.426-2.239h-.107s-.214,1.386-.426,2.239l-1.7,6.075Z" transform="translate(-241.124 -120.35)" fill="#040505"/>
      <path id="Path_11" data-name="Path 11" d="M369.841,120.684h4.374c3.945,0,6.611,3.092,6.611,8.423s-2.666,8.423-6.611,8.423h-4.374ZM374,136.037c3.092,0,5.117-2.452,5.117-7.037,0-4.478-2.025-6.925-5.117-6.925h-2.56v13.972Z" transform="translate(-305.441 -120.35)" fill="#040505"/>
      <path id="Path_12" data-name="Path 12" d="M449.111,120.684h1.7l4.691,16.847h-1.594l-1.493-5.331h-4.9l-1.493,5.331h-1.6Zm2.985,10.022-1.7-6.075c-.214-.746-.426-2.239-.426-2.239h-.107s-.214,1.386-.426,2.239l-1.7,6.075Z" transform="translate(-364.774 -120.35)" fill="#040505"/>
      <path id="Path_13" data-name="Path 13" d="M518.183,119.644h1.6l-1.067,4.159h-1.278Z" transform="translate(-422.864 -119.523)" fill="#040505"/>
      <path id="Path_14" data-name="Path 14" d="M554.062,133.566a4.432,4.432,0,0,0,3.2,1.386,2.717,2.717,0,0,0,2.777-2.655c0-.074,0-.149,0-.223,0-4.052-6.4-3.625-6.4-8.636a4.253,4.253,0,0,1,4.585-4.374,5.86,5.86,0,0,1,3.412,1.067l-.64,1.493a4.826,4.826,0,0,0-2.772-.96,2.737,2.737,0,0,0-2.878,2.878c0,3.838,6.4,3.412,6.4,8.53a4.252,4.252,0,0,1-4.374,4.585,5.476,5.476,0,0,1-3.944-1.6Z" transform="translate(-451.492 -119.051)" fill="#040505"/>
      <path id="Path_15" data-name="Path 15" d="M59.625,230.732h1.594v11.515c0,2.773,1.391,4.158,3.416,4.158,2.132,0,3.523-1.386,3.523-4.159V230.732h1.6v11.622c0,3.523-2.025,5.544-5.117,5.544s-5.122-2.025-5.122-5.544Z" transform="translate(-58.558 -207.901)" fill="#040505"/>
      <path id="Path_16" data-name="Path 16" d="M144.527,230.732h1.6v15.46h5.97v1.493h-7.569Z" transform="translate(-126.189 -207.901)" fill="#040505"/>
      <path id="Path_17" data-name="Path 17" d="M197.1,231.7h-4.585v-1.493h10.769V231.7H198.7v15.459h-1.6Z" transform="translate(-164.364 -207.485)" fill="#040505"/>
      <path id="Path_18" data-name="Path 18" d="M273.349,230.732h1.6v16.846h-1.6Z" transform="translate(-228.675 -207.901)" fill="#040505"/>
      <path id="Path_19" data-name="Path 19" d="M316.035,230.732h1.7l3.2,9.7c.214.85.64,2.239.64,2.239h0s.32-1.386.533-2.239l3.2-9.7h1.7l1.067,16.846H326.59l-.746-11.728V233.5h0s-.32,1.6-.64,2.559l-2.878,8.423h-1.6l-2.773-8.423a21.014,21.014,0,0,1-.64-2.559h0v2.346l-.746,11.728h-1.492Z" transform="translate(-261.871 -207.901)" fill="#040505"/>
      <path id="Path_20" data-name="Path 20" d="M409.471,230.732h1.7l4.691,16.846h-1.594l-1.493-5.331h-4.9l-1.493,5.331h-1.6Zm3.092,10.129-1.7-6.075c-.214-.746-.426-2.239-.426-2.239h-.107s-.214,1.386-.426,2.239l-1.7,6.075Z" transform="translate(-333.238 -207.901)" fill="#040505"/>
      <path id="Path_21" data-name="Path 21" d="M478.732,231.7h-4.585v-1.493h10.77V231.7h-4.585v15.459h-1.6Z" transform="translate(-388.424 -207.485)" fill="#040505"/>
      <path id="Path_22" data-name="Path 22" d="M554.991,230.732h7.463v1.493H556.59v6.184h4.8V239.8h-4.8v6.4h6.184v1.493h-7.783Z" transform="translate(-452.741 -207.901)" fill="#040505"/>
    </g>
    <g id="Group_18" data-name="Group 18" transform="translate(97.805 163.466)">
      <ellipse id="Ellipse_7" data-name="Ellipse 7" cx="11.273" cy="11.145" rx="11.273" ry="11.145" transform="translate(0.06)" fill="#fff"/>
      <path id="Path_28" data-name="Path 28" d="M276.417,336.314c-6.576,0-11.342,4.827-11.342,11.01a10.986,10.986,0,0,0,8.458,10.931,7.771,7.771,0,0,0,3.151-6.228.25.25,0,0,0-.086-.21c-.079-.058-.284-.012-.284-.012a31.479,31.479,0,0,1-3.8.566q.2-.461.371-.936a.433.433,0,0,0,.011-.265.542.542,0,0,0-.167-.2,14.031,14.031,0,0,1-3.81-3.807,5.3,5.3,0,0,0,.861-.06s.078,0,.073-.141c0-.1-.028-.264-.028-.264-.162-.832-.288-1.671-.39-2.491a10.443,10.443,0,0,0,1.679.937s.2.091.3.044c.076-.039.121-.269.121-.269.068-.29.137-.584.218-.876a13.658,13.658,0,0,0,1.678,2.15.313.313,0,0,0,.4.049c.15-.113.027-.5.029-.5a12.476,12.476,0,0,1-.461-4.076c.3.222.615.435.939.638a.307.307,0,0,0,.31.015.684.684,0,0,0,.249-.227,11.155,11.155,0,0,1,2.252-2.446,5.733,5.733,0,0,0,.332,2.415.347.347,0,0,0,.181.2.435.435,0,0,0,.344-.019q.647-.278,1.318-.517a10.835,10.835,0,0,0-.937,3.626s-.048.373.143.461a.355.355,0,0,0,.419-.082,14.387,14.387,0,0,1,1.816-1.839c.082.269.17.543.261.819,0,0,.061.218.16.276a.9.9,0,0,0,.373.056,8.507,8.507,0,0,1,2.28.224c-.283.642-.542,1.294-.767,1.971a1.609,1.609,0,0,0-.046.231.226.226,0,0,0,.069.2,11.471,11.471,0,0,1,.824.823,9.313,9.313,0,0,0-3.33,2.148.506.506,0,0,0-.131.215.728.728,0,0,0,.015.3c.088.37.163.744.224,1.12a16.734,16.734,0,0,0-3.2-.523c.1.007-.195-.023-.278.048a.315.315,0,0,0-.1.222,10.082,10.082,0,0,1-2.472,6.447,12.462,12.462,0,0,0,1.779.139,11.055,11.055,0,0,0,11.342-11.281c0-6.183-4.767-11.01-11.342-11.01" transform="translate(-265.075 -336.314)" fill="#e3001b"/>
    </g>
  </g>
</svg>
