<svg xmlns="http://www.w3.org/2000/svg" width="86.307" height="86.307" viewBox="0 0 86.307 86.307">
  <g id="Group_83" data-name="Group 83" transform="translate(-280.272 -282.453)">
    <g id="Group_81" data-name="Group 81">
      <path id="Path_140" data-name="Path 140" d="M323.505,343.117a22.442,22.442,0,0,1-6.7-.929,16.026,16.026,0,0,1-5.686-3.269,4.169,4.169,0,0,1-1.063-1.329,3.3,3.3,0,0,1-.372-1.488,3.042,3.042,0,0,1,.877-2.152,2.9,2.9,0,0,1,2.2-.93,2.811,2.811,0,0,1,1.807.638,16.881,16.881,0,0,0,4.012,2.5,12.524,12.524,0,0,0,4.916.851,10.325,10.325,0,0,0,3.614-.611,7.084,7.084,0,0,0,2.658-1.648,3.3,3.3,0,0,0,1.009-2.365,4.025,4.025,0,0,0-.956-2.71,7.276,7.276,0,0,0-2.923-1.887,22.62,22.62,0,0,0-5-1.2,22.262,22.262,0,0,1-5.049-1.3,11.712,11.712,0,0,1-3.64-2.232,8.8,8.8,0,0,1-2.2-3.188,10.854,10.854,0,0,1-.745-4.119,9.741,9.741,0,0,1,1.781-5.9,11.152,11.152,0,0,1,4.809-3.721,17.1,17.1,0,0,1,6.7-1.275,19.185,19.185,0,0,1,6.4,1.036,14.907,14.907,0,0,1,4.81,2.631,3.548,3.548,0,0,1,1.541,2.817,3.026,3.026,0,0,1-.9,2.125,2.833,2.833,0,0,1-2.126.957,2.332,2.332,0,0,1-1.435-.478,9.626,9.626,0,0,0-2.285-1.409,20.583,20.583,0,0,0-3.029-1.115,10.967,10.967,0,0,0-2.976-.452,11.1,11.1,0,0,0-3.853.584,5.263,5.263,0,0,0-2.365,1.6,3.664,3.664,0,0,0-.8,2.338,3.787,3.787,0,0,0,.931,2.631,6.291,6.291,0,0,0,2.683,1.647,30.972,30.972,0,0,0,4.2,1.09,42.7,42.7,0,0,1,5.606,1.381,13.144,13.144,0,0,1,4.013,2.046,7.76,7.76,0,0,1,2.392,3.136,11.816,11.816,0,0,1,.8,4.6,9.5,9.5,0,0,1-1.914,5.952,12.234,12.234,0,0,1-5.021,3.827A16.943,16.943,0,0,1,323.505,343.117Zm3.827,2.87a3.177,3.177,0,0,1-3.242,3.242,2.991,2.991,0,0,1-2.232-.93,3.185,3.185,0,0,1-.9-2.312V303.259a3.177,3.177,0,0,1,3.241-3.242,2.965,2.965,0,0,1,2.259.93,3.239,3.239,0,0,1,.877,2.312Z" fill="#005a76"/>
    </g>
    <g id="Group_82" data-name="Group 82">
      <path id="Path_141" data-name="Path 141" d="M323.425,368.76a43.154,43.154,0,1,1,43.154-43.154A43.2,43.2,0,0,1,323.425,368.76Zm0-80.307a37.154,37.154,0,1,0,37.154,37.153A37.2,37.2,0,0,0,323.425,288.453Z" fill="#005a76"/>
    </g>
  </g>
</svg>
