<svg xmlns="http://www.w3.org/2000/svg" width="81.866" height="81.536" viewBox="0 0 81.866 81.536">
  <g id="_7RrFX7.tif" data-name="7RrFX7.tif" transform="translate(-164.702 -124.312)">
    <g id="Group_77" data-name="Group 77">
      <path id="Path_135" data-name="Path 135" d="M236.205,176.7,213.171,156.97c-.276.223-.539.426-.791.642-1.62,1.385-3.23,2.782-4.858,4.158a2.674,2.674,0,0,1-3.78,0c-1.545-1.3-3.066-2.625-4.6-3.938-.32-.274-.644-.543-1.024-.863-7.714,6.6-15.389,13.167-23.207,19.854.427.033.666.066.9.067,1.762,0,3.524-.014,5.286.007a2.729,2.729,0,0,1,2.874,2.732,2.693,2.693,0,0,1-2.867,2.717q-6.82.042-13.64.047a2.687,2.687,0,0,1-2.767-2.815q0-26.183,0-52.365a2.682,2.682,0,0,1,2.918-2.9h76.056a2.671,2.671,0,0,1,2.889,2.845q0,26.225,0,52.45a2.714,2.714,0,0,1-2.8,2.792c-5.456-.008-10.912-.032-16.369-.042a2.647,2.647,0,0,1-2.6-1.6,2.6,2.6,0,0,1,.39-2.877,2.83,2.83,0,0,1,2.348-.99q3.837.006,7.674,0h.924Zm-30.573-20.493,30.75-26.365h-61.5ZM170.2,173.67l23.731-20.3L170.2,133.024Zm47.147-20.313,23.7,20.3V133.032Z" fill="#005a76"/>
      <path id="Path_136" data-name="Path 136" d="M208.362,176.174v8.871q0,8.95,0,17.9a2.727,2.727,0,0,1-3.707,2.71,2.761,2.761,0,0,1-1.745-2.758q0-12.788,0-25.576v-1.1c-.3.268-.506.434-.693.618q-3.733,3.681-7.461,7.367a2.716,2.716,0,0,1-2.89.74,2.714,2.714,0,0,1-1.022-4.55q6.4-6.321,12.807-12.628a2.808,2.808,0,0,1,4.109.058q6.237,6.177,12.471,12.358a2.857,2.857,0,0,1,1.03,2.494,2.585,2.585,0,0,1-1.823,2.256,2.684,2.684,0,0,1-2.894-.71q-3.791-3.744-7.584-7.484C208.814,176.6,208.668,176.465,208.362,176.174Z" fill="#005a76"/>
    </g>
  </g>
</svg>
