<svg xmlns="http://www.w3.org/2000/svg" width="393.773" height="389.834" viewBox="0 0 393.773 389.834">
  <path id="Path_167" data-name="Path 167" d="M-235.357,211.964c3.664-5.861,7.173-11.655,10.859-17.336,8.348-12.861,17.584-25.015,28.953-35.411,9.029-8.254,19.187-14.387,31.315-17,23.62-5.093,46.669,8.734,52.13,31.6,2.907,12.169.064,23.4-6.6,33.763-7,10.88-16.948,18.452-28.03,24.7-10.709,6.039-22.074,10.522-33.826,14.471h2.5q60.023,0,120.045.008a20.076,20.076,0,0,1,20.092,15.893,23.181,23.181,0,0,1,.434,5.056c.034,13.982-.24,27.971.1,41.945.269,10.978-8.071,21.432-21.038,21.224-.83-.013-1.658,0-2.58,0v4.141q0,87.487,0,174.973c0,12.382-8.52,20.992-20.926,21q-152.257.029-304.516,0c-12.366,0-21-8.641-21-20.989q-.034-87.833-.008-175.666v-3.307c-1.211-.059-2.561-.1-3.906-.2-11.58-.822-19.514-8.909-19.651-20.489-.171-14.367-.2-28.74.014-43.1.179-12.113,8.986-20.475,21.1-20.476q56.547-.014,113.093,0h3.749c-5.52-2.2-10.5-3.988-15.308-6.145-11.234-5.04-21.956-10.968-31.044-19.434-8.6-8.01-14.972-17.368-17.22-29.169a40.5,40.5,0,0,1,31.486-47.257c14.9-3.152,28.234.892,40.557,9.168,9.212,6.188,16.716,14.253,23.482,22.874,8.425,10.733,16.2,21.977,24.251,33C-236.368,210.47-235.9,211.175-235.357,211.964ZM-272.777,330.87H-275.5l-110.063,0c-3.835,0-4.5.633-4.5,4.41q0,86.891,0,173.784c0,4.089.6,4.66,4.713,4.66q54.914,0,109.831,0h2.737Zm77.195,182.852h2.457q55.257,0,110.516,0c3.491,0,4.228-.73,4.228-4.175q0-87.233,0-174.465c0-3.5-.685-4.2-4.193-4.2q-55.257-.01-110.516,0c-.809,0-1.619.093-2.492.147Zm-59.782-1.052h42.3V331.051h-42.3ZM-175.857,313.5h2.588q39.278,0,78.556,0,18.074,0,36.148-.006c2.881,0,3.8-.881,3.8-3.674q.022-20.971,0-41.944c0-2.831-.89-3.712-3.733-3.81-.386-.013-.772,0-1.159,0l-113.314,0h-2.886ZM-292.6,264.163c-.818-.042-1.427-.1-2.035-.1q-57.357,0-114.715.01c-3.467,0-4.277.8-4.281,4.2q-.014,20.51,0,41.02c0,3.494.729,4.212,4.2,4.212q57.241,0,114.483-.006c.749,0,1.5-.067,2.344-.107ZM-154.386,159.81a36.091,36.091,0,0,0-18,5.181c-8.563,4.936-15.289,11.942-21.61,19.366-10.9,12.8-19.482,27.169-28,41.588-1.766,2.988-2.168,5.248.154,7.969.846.991,1.422,1.534,2.795,1.313,4.563-.729,9.176-1.155,13.72-1.979,16.836-3.06,33.03-8.1,48.114-16.319,8.523-4.644,16.5-10.051,22.146-18.194,4.37-6.3,6.84-13.151,4.916-20.92C-132.837,166.981-142.555,159.823-154.386,159.81Zm-162.328,2.337c-1.145.17-2.923.315-4.644.708a22.034,22.034,0,0,0-17.164,25.085c1,6.51,4.3,11.828,8.638,16.572,7.544,8.251,17.1,13.59,27.044,18.284,16.732,7.9,34.484,11.78,52.856,13.077a2.5,2.5,0,0,0,1.8-.943,11.905,11.905,0,0,0,1.77-3.232,3.239,3.239,0,0,0-.074-2.431c-8.278-13.4-16.926-26.565-27.069-38.654-6.3-7.512-12.645-15.031-20.667-20.836C-300.73,165.066-307.872,162.026-316.714,162.146Zm41.82,103.132V312.4h81.419V265.278Z" transform="translate(431.158 -141.161)" fill="#fff" opacity="0.06"/>
</svg>
