<svg xmlns="http://www.w3.org/2000/svg" width="187.979" height="57.615" viewBox="0 0 187.979 57.615">
  <g id="Group_21" data-name="Group 21" transform="translate(-46.005 -263.844)">
    <path id="Path_29" data-name="Path 29" d="M76.285,309.857H74q-1.636,0-3.764-.016t-4.535-.015q-2.406,0-4.535-.016t-3.779-.015H55.122q-2.006,0-3.949.031t-3.949.031V309.3l3.671-.062q.709,0,.895-.417a2.066,2.066,0,0,0,.185-.848V267.963a2.067,2.067,0,0,0-.185-.848q-.185-.417-.895-.417l-3.671-.062v-.555q2.005,0,3.949.031t3.949.031q1.913,0,3.887-.031t3.887-.031v.555l-3.61.062q-.71,0-.895.417a2.067,2.067,0,0,0-.185.848v40.012a2.066,2.066,0,0,0,.185.848q.185.417.895.417h6.879a6.794,6.794,0,0,0,2.406-.417,8.714,8.714,0,0,0,2.067-1.11,9.23,9.23,0,0,0,1.7-1.589,12.763,12.763,0,0,0,1.3-1.882,18.363,18.363,0,0,0,1-2.19q.478-1.233.864-2.468t.663-2.283q.278-1.048.432-1.6h.586Z" transform="translate(-0.732 -1.342)" fill="#fff"/>
    <path id="Path_30" data-name="Path 30" d="M137.287,286.658a23.7,23.7,0,0,0,4.828-.416,7.685,7.685,0,0,0,3.224-1.419,6.384,6.384,0,0,0,1.943-2.7,18.024,18.024,0,0,0,1.018-4.288h.617v18.17h-.679a15.2,15.2,0,0,0-1.28-4.735,6.653,6.653,0,0,0-2.236-2.638,7.564,7.564,0,0,0-3.209-1.142,32.3,32.3,0,0,0-4.226-.247v20.731a2.066,2.066,0,0,0,.185.848q.185.417.895.417H146.7a5.679,5.679,0,0,0,2.3-.478,8.379,8.379,0,0,0,2.021-1.249,11.024,11.024,0,0,0,1.666-1.728,15.963,15.963,0,0,0,1.3-1.943,18.85,18.85,0,0,0,1.018-2.129q.493-1.2.895-2.36t.679-2.144q.278-.987.37-1.512h.648l-.525,14.16h-7.3q-3.1,0-5.383-.016t-3.887-.015q-1.6,0-2.746-.016t-1.974-.015H134.2q-2.006,0-3.949.031t-3.949.031V309.3l3.671-.062q.709,0,.895-.417a2.066,2.066,0,0,0,.185-.848V267.963a2.068,2.068,0,0,0-.185-.848q-.185-.417-.895-.417l-3.671-.062v-.555q2.005,0,3.949.031t3.949.031h1.558q.848,0,2.005-.015t2.715-.016q1.558,0,3.7-.015t4.967-.016h6.524l.463,12.124h-.648q-.093-.524-.278-1.311t-.463-1.7q-.278-.91-.648-1.867a16.412,16.412,0,0,0-.833-1.82,15.329,15.329,0,0,0-1.172-1.82,11.054,11.054,0,0,0-1.373-1.527,7.228,7.228,0,0,0-1.481-1.064,3.125,3.125,0,0,0-1.466-.4h-9.409q-.71,0-.895.417a2.067,2.067,0,0,0-.185.848Z" transform="translate(-48.19 -1.342)" fill="#fff"/>
    <path id="Path_31" data-name="Path 31" d="M242.409,304.72a12.88,12.88,0,0,1-2.684,1.835,23.885,23.885,0,0,1-3.455,1.481,27.986,27.986,0,0,1-3.779,1,19.393,19.393,0,0,1-3.656.37,16.387,16.387,0,0,1-5.553-.894,14.646,14.646,0,0,1-4.427-2.484,16.254,16.254,0,0,1-3.332-3.764,23.564,23.564,0,0,1-2.329-4.7,27.863,27.863,0,0,1-1.357-5.306,36.427,36.427,0,0,1-.432-5.615,32.008,32.008,0,0,1,.478-5.476,29.616,29.616,0,0,1,1.419-5.291,23.121,23.121,0,0,1,2.391-4.72,18.025,18.025,0,0,1,3.378-3.825,14.829,14.829,0,0,1,4.365-2.561,15.1,15.1,0,0,1,5.4-.925,17.158,17.158,0,0,1,3.918.4,23.246,23.246,0,0,1,2.977.895q1.279.494,2.221.895a4.352,4.352,0,0,0,1.681.4.694.694,0,0,0,.525-.231,2.417,2.417,0,0,0,.37-.525,4.244,4.244,0,0,0,.263-.617c.071-.216.128-.385.169-.509h.555v13.2h-.555q-.37-1.326-.864-2.853a27.738,27.738,0,0,0-1.172-3.008,22.094,22.094,0,0,0-1.574-2.854,11.6,11.6,0,0,0-2.1-2.422,9.6,9.6,0,0,0-2.73-1.666,9.121,9.121,0,0,0-3.44-.617,7.823,7.823,0,0,0-3.486.756,8.611,8.611,0,0,0-2.715,2.1,12.691,12.691,0,0,0-1.99,3.147,19.861,19.861,0,0,0-1.28,3.872q-.217.956-.432,2.129t-.385,2.684q-.17,1.512-.278,3.393t-.108,4.227a59.181,59.181,0,0,0,.432,7.928q.432,3.085.772,4.6a21.02,21.02,0,0,0,1.234,3.872,11.348,11.348,0,0,0,1.928,3.069,8.338,8.338,0,0,0,2.761,2.036,8.825,8.825,0,0,0,3.732.741,9.95,9.95,0,0,0,2.052-.232,11.874,11.874,0,0,0,2.1-.648,7.636,7.636,0,0,0,1.743-.987,2.881,2.881,0,0,0,.987-1.218V292.9a3.075,3.075,0,0,0-.031-.432,1.105,1.105,0,0,0-.138-.4.859.859,0,0,0-.324-.309,1.116,1.116,0,0,0-.555-.123l-3.671-.062v-.555q2.005,0,3.949.031t3.949.031q1.913,0,3.825-.031t3.825-.031v.555l-3.485.062q-.71,0-.9.416a2.074,2.074,0,0,0-.185.849Z" transform="translate(-99.262)" fill="#fff"/>
    <path id="Path_32" data-name="Path 32" d="M311.655,307.975a2.065,2.065,0,0,0,.185.848q.185.417.895.417l3.671.062v.555q-1.913,0-3.918-.031t-3.918-.031q-2.006,0-3.949.031t-3.949.031V309.3l3.671-.062q.71,0,.895-.417a2.073,2.073,0,0,0,.185-.848V267.963a2.074,2.074,0,0,0-.185-.848q-.185-.417-.895-.417l-3.671-.062v-.555q2.005,0,3.949.031t3.949.031q1.912,0,3.918-.031t3.918-.031v.555l-3.671.062q-.71,0-.895.417a2.067,2.067,0,0,0-.185.848Z" transform="translate(-152.833 -1.342)" fill="#fff"/>
    <path id="Path_33" data-name="Path 33" d="M376.092,286.642a34.735,34.735,0,0,1-1.111,8.977,22.771,22.771,0,0,1-3.239,7.219,15.775,15.775,0,0,1-5.26,4.812,14.335,14.335,0,0,1-7.141,1.758,14.525,14.525,0,0,1-5.214-.894,13.883,13.883,0,0,1-4.18-2.484,16.45,16.45,0,0,1-3.193-3.764,23.889,23.889,0,0,1-2.252-4.7,29.4,29.4,0,0,1-1.327-5.306,36.423,36.423,0,0,1-.432-5.615,35.769,35.769,0,0,1,.447-5.646,30.187,30.187,0,0,1,1.342-5.337,23.482,23.482,0,0,1,2.252-4.689,16.4,16.4,0,0,1,3.208-3.748,14.155,14.155,0,0,1,4.18-2.484,15.307,15.307,0,0,1,12.308.879,15.871,15.871,0,0,1,5.26,4.843,22.963,22.963,0,0,1,3.239,7.234A34.606,34.606,0,0,1,376.092,286.642Zm-6.941,0a77.695,77.695,0,0,0-.324-7.79q-.323-3.131-.694-5.137a16.823,16.823,0,0,0-1.126-3.825,11.193,11.193,0,0,0-1.851-2.961,7.756,7.756,0,0,0-2.561-1.913,7.657,7.657,0,0,0-3.255-.679,7.135,7.135,0,0,0-3.177.694,8.094,8.094,0,0,0-2.514,1.928,10.856,10.856,0,0,0-1.835,2.961,17.4,17.4,0,0,0-1.111,3.794q-.4,2.036-.709,5.121t-.309,7.805a75.63,75.63,0,0,0,.355,8.082q.354,3.209.663,4.813a18.167,18.167,0,0,0,1.142,3.81,11.136,11.136,0,0,0,1.82,2.946,7.714,7.714,0,0,0,2.5,1.913,7.272,7.272,0,0,0,3.177.679,7.511,7.511,0,0,0,3.255-.694,7.849,7.849,0,0,0,2.561-1.944,11.534,11.534,0,0,0,1.851-2.961,16.622,16.622,0,0,0,1.126-3.748q.278-1.481.648-4.782A74.513,74.513,0,0,0,369.151,286.642Z" transform="translate(-178.081)" fill="#fff"/>
    <path id="Path_34" data-name="Path 34" d="M458.957,310.35h-1.2l-23.569-42.017v38.161a2.7,2.7,0,0,0,.694,1.974,2.464,2.464,0,0,0,1.651.771l2.406.062v.555q-.988,0-2.083-.031t-2.977-.031q-2.006,0-3.193.031t-1.99.031V309.3l2.345-.062a2.464,2.464,0,0,0,1.65-.771,2.7,2.7,0,0,0,.694-1.974V267.963a2.067,2.067,0,0,0-.185-.848q-.185-.417-.895-.417l-3.61-.062v-.555q.741,0,1.419.016t1.4.015q.724,0,1.527.016t1.789.015q.956,0,1.6-.015t1.2-.016q.555,0,1.08-.015t1.234-.016l18.171,32.392v-29.06a2.7,2.7,0,0,0-.679-1.943,2.41,2.41,0,0,0-1.635-.771l-2.406-.062v-.555q.555,0,1.049.016t1.08.015q.586,0,1.281.016t1.65.015q1.974,0,3.131-.031t2.051-.031v.555l-2.344.062a2.464,2.464,0,0,0-1.65.771,2.659,2.659,0,0,0-.694,1.943Z" transform="translate(-229.662 -1.342)" fill="#fff"/>
    <g id="Group_20" data-name="Group 20" transform="translate(46.005 313.946)">
      <path id="Path_35" data-name="Path 35" d="M50.578,396.535a.777.777,0,0,1-.033-.081.752.752,0,0,0-.043-.1.349.349,0,0,0-.061-.084.111.111,0,0,0-.081-.036.454.454,0,0,0-.186.066,3.244,3.244,0,0,1-.318.142,3.786,3.786,0,0,1-.457.142,2.513,2.513,0,0,1-.605.066,2.467,2.467,0,0,1-.89-.153,2.418,2.418,0,0,1-.707-.417,2.642,2.642,0,0,1-.534-.625,4.021,4.021,0,0,1-.371-.779,4.741,4.741,0,0,1-.216-.872,6.107,6.107,0,0,1-.069-.908,5.889,5.889,0,0,1,.072-.913,4.906,4.906,0,0,1,.218-.875,3.953,3.953,0,0,1,.371-.778,2.774,2.774,0,0,1,.529-.625,2.284,2.284,0,0,1,.7-.417,2.413,2.413,0,0,1,.869-.15,2.46,2.46,0,0,1,.6.066,3.735,3.735,0,0,1,.455.142,3.089,3.089,0,0,1,.318.143.467.467,0,0,0,.186.066.112.112,0,0,0,.081-.036.414.414,0,0,0,.064-.084.616.616,0,0,0,.046-.1l.028-.082h.264v2.177h-.264c-.044-.159-.091-.321-.14-.486a4.673,4.673,0,0,0-.17-.475,2.843,2.843,0,0,0-.224-.427,1.5,1.5,0,0,0-.305-.345,1.4,1.4,0,0,0-.415-.234,1.6,1.6,0,0,0-.547-.086,1.194,1.194,0,0,0-.527.11,1.178,1.178,0,0,0-.394.31,1.813,1.813,0,0,0-.282.483,4,4,0,0,0-.191.628q-.035.158-.068.341c-.022.122-.043.262-.061.42s-.033.337-.043.539-.015.432-.015.689.006.5.018.715.027.4.046.562.039.305.061.427.043.225.063.31a4.087,4.087,0,0,0,.188.608,1.706,1.706,0,0,0,.282.475,1.2,1.2,0,0,0,.407.308,1.324,1.324,0,0,0,.557.109,1.523,1.523,0,0,0,.544-.089,1.343,1.343,0,0,0,.409-.242,1.536,1.536,0,0,0,.3-.361,3.059,3.059,0,0,0,.224-.448,4.92,4.92,0,0,0,.17-.5q.074-.259.145-.519h.26v2.278Z" transform="translate(-46.005 -389.14)" fill="#fff"/>
      <path id="Path_36" data-name="Path 36" d="M62.882,396.68v-.27h.8l-.656-2.137H60.944l-.656,2.137H61.1v.27H59.291v-.27h.646l2.2-6.979h.437l2.177,6.979h.646v.27Zm-.905-5.737-.936,3.052h1.892Z" transform="translate(-53.978 -389.315)" fill="#fff"/>
      <path id="Path_37" data-name="Path 37" d="M80.9,389.779v7.029h-.351l-3.784-6.739v6.389h.783v.27H75.641v-.27h.783v-6.678h-.783v-.27h1.968l2.95,5.238v-4.969h-.783v-.27h1.917v.27Z" transform="translate(-63.79 -389.361)" fill="#fff"/>
      <path id="Path_38" data-name="Path 38" d="M94.832,396.68v-.27h.8l-.656-2.137H92.894l-.656,2.137h.814v.27H91.241v-.27h.646l2.2-6.979h.437l2.177,6.979h.646v.27Zm-.905-5.737-.936,3.052h1.892Z" transform="translate(-73.152 -389.315)" fill="#fff"/>
      <path id="Path_39" data-name="Path 39" d="M113.3,393.12a4.622,4.622,0,0,1-.214,1.432,3.577,3.577,0,0,1-.6,1.142,2.81,2.81,0,0,1-.926.758,2.573,2.573,0,0,1-1.185.275h-2.782v-.27h.783v-6.678h-.783v-.27h2.782a2.564,2.564,0,0,1,1.19.277,2.811,2.811,0,0,1,.923.761,3.594,3.594,0,0,1,.6,1.144A4.626,4.626,0,0,1,113.3,393.12Zm-1.134,0q0-.4-.02-.715c-.014-.209-.03-.392-.049-.552s-.039-.3-.061-.412-.042-.212-.058-.29a2.065,2.065,0,0,0-.206-.547,1.682,1.682,0,0,0-.343-.435,1.518,1.518,0,0,0-.471-.288,1.623,1.623,0,0,0-.593-.1H109.4v6.678h.951a1.751,1.751,0,0,0,.6-.1,1.5,1.5,0,0,0,.478-.28,1.541,1.541,0,0,0,.343-.437,2.02,2.02,0,0,0,.2-.572c.013-.074.031-.164.053-.267s.043-.232.064-.384.037-.334.051-.544S112.164,393.412,112.164,393.12Z" transform="translate(-82.964 -389.361)" fill="#fff"/>
      <path id="Path_40" data-name="Path 40" d="M125.943,396.68v-.27h.8l-.656-2.137H124l-.656,2.137h.814v.27h-1.811v-.27H123l2.2-6.979h.437l2.177,6.979h.646v.27Zm-.905-5.737-.936,3.052h1.892Z" transform="translate(-91.823 -389.315)" fill="#fff"/>
      <path id="Path_41" data-name="Path 41" d="M139.033,390.086a2.02,2.02,0,0,1-.094.613,1.855,1.855,0,0,1-.717.974,1.693,1.693,0,0,1-.6.26l-.087-.2a1.655,1.655,0,0,0,.875-.577,1.478,1.478,0,0,0,.275-.883v-.122a.9.9,0,0,1-.176.14.446.446,0,0,1-.242.068.607.607,0,0,1-.437-.16.587.587,0,0,1-.168-.445.643.643,0,0,1,.046-.242.558.558,0,0,1,.13-.2.622.622,0,0,1,.2-.13.721.721,0,0,1,.8.19A1.076,1.076,0,0,1,139.033,390.086Z" transform="translate(-100.933 -389.14)" fill="#fff"/>
      <path id="Path_42" data-name="Path 42" d="M148.019,394.369a2.508,2.508,0,0,1-.158.895,2.065,2.065,0,0,1-.46.725,2.17,2.17,0,0,1-.74.485,2.624,2.624,0,0,1-1,.178,2.42,2.42,0,0,1-.58-.064,3.557,3.557,0,0,1-.445-.14c-.127-.051-.235-.1-.323-.14a.531.531,0,0,0-.214-.064.1.1,0,0,0-.074.033.347.347,0,0,0-.059.082c-.017.032-.032.064-.046.1s-.024.058-.03.079h-.265v-2.289h.265a4.963,4.963,0,0,0,.122.486,3.943,3.943,0,0,0,.186.493,2.772,2.772,0,0,0,.259.455,1.883,1.883,0,0,0,.343.374,1.565,1.565,0,0,0,.435.254,1.466,1.466,0,0,0,.537.094,1.507,1.507,0,0,0,.623-.12,1.233,1.233,0,0,0,.443-.326,1.4,1.4,0,0,0,.264-.475,1.8,1.8,0,0,0,.089-.57,2.082,2.082,0,0,0-.038-.414,1.121,1.121,0,0,0-.127-.339,1.171,1.171,0,0,0-.227-.277,1.679,1.679,0,0,0-.335-.232,2.721,2.721,0,0,0-.379-.163l-.457-.16q-.242-.083-.483-.178a3.386,3.386,0,0,1-.455-.216,2.553,2.553,0,0,1-.391-.282,1.812,1.812,0,0,1-.321-.369,1.788,1.788,0,0,1-.216-.471,2.1,2.1,0,0,1,.509-2.037,2.119,2.119,0,0,1,.679-.463,2.21,2.21,0,0,1,.891-.173,2.1,2.1,0,0,1,.544.064,2.9,2.9,0,0,1,.415.14c.117.051.214.1.292.14a.426.426,0,0,0,.173.064.1.1,0,0,0,.069-.033.378.378,0,0,0,.061-.081.842.842,0,0,0,.048-.1c.014-.032.024-.059.031-.079h.26v2.177h-.26q-.087-.361-.2-.727a2.681,2.681,0,0,0-.3-.662,1.586,1.586,0,0,0-.473-.481,1.294,1.294,0,0,0-.717-.186,1.343,1.343,0,0,0-.519.1,1.238,1.238,0,0,0-.412.275,1.288,1.288,0,0,0-.272.415,1.32,1.32,0,0,0-.1.513,1.824,1.824,0,0,0,.048.438,1.251,1.251,0,0,0,.148.353,1.227,1.227,0,0,0,.257.292,2.1,2.1,0,0,0,.382.249q.152.076.343.15t.4.15q.206.077.417.158t.4.178a3.033,3.033,0,0,1,.453.277,1.737,1.737,0,0,1,.361.361,1.617,1.617,0,0,1,.239.473A1.963,1.963,0,0,1,148.019,394.369Z" transform="translate(-104.593 -389.14)" fill="#fff"/>
      <path id="Path_43" data-name="Path 43" d="M167.907,396.726v-.27h.753V389.8h-.107l-2.137,6.928h-.29l-2-6.928h-.117v6.658h.783v.27h-1.907v-.27h.783v-6.678h-.783v-.27h2.2l1.572,5.406,1.658-5.406h2.157v.27h-.783v6.678h.783v.27Z" transform="translate(-116.149 -389.361)" fill="#fff"/>
      <path id="Path_44" data-name="Path 44" d="M183.625,396.726v-.27h.783v-6.678h-.783v-.27h2.594v.27h-.783v6.678h.783v.27Z" transform="translate(-128.595 -389.361)" fill="#fff"/>
      <path id="Path_45" data-name="Path 45" d="M196.677,396.726h-4.791v-.27h.783v-6.678h-.783v-.27h2.584v.27H193.7v6.678h1.149a1.3,1.3,0,0,0,.394-.059,1.466,1.466,0,0,0,.343-.158,1.348,1.348,0,0,0,.282-.237,1.633,1.633,0,0,0,.216-.3,3.28,3.28,0,0,0,.163-.346q.076-.188.14-.371t.107-.343q.043-.16.069-.251h.264Z" transform="translate(-133.552 -389.361)" fill="#fff"/>
      <path id="Path_46" data-name="Path 46" d="M205.871,396.726v-.27h.783v-6.678h-.783v-.27h2.594v.27h-.783v6.678h.783v.27Z" transform="translate(-141.945 -389.361)" fill="#fff"/>
      <path id="Path_47" data-name="Path 47" d="M219.324,391.487a3.66,3.66,0,0,0-.109-.427,3.078,3.078,0,0,0-.236-.545,1.789,1.789,0,0,0-.2-.295,1.546,1.546,0,0,0-.247-.234,1.292,1.292,0,0,0-.262-.153.654.654,0,0,0-.254-.056h-.646v6.678h.794v.27h-2.62v-.27h.793v-6.678h-.646a.651.651,0,0,0-.254.056,1.271,1.271,0,0,0-.262.153,1.513,1.513,0,0,0-.247.234,1.741,1.741,0,0,0-.2.295,3.022,3.022,0,0,0-.236.545,3.59,3.59,0,0,0-.11.427h-.27l.071-1.978h5.345l.072,1.978Z" transform="translate(-146.887 -389.361)" fill="#fff"/>
      <path id="Path_48" data-name="Path 48" d="M230.549,396.68v-.27h.8l-.656-2.137h-2.085l-.656,2.137h.814v.27h-1.811v-.27h.646l2.2-6.979h.437l2.177,6.979h.646v.27Zm-.905-5.737-.936,3.052H230.6Z" transform="translate(-154.6 -389.315)" fill="#fff"/>
      <path id="Path_49" data-name="Path 49" d="M249.443,396.548a1.7,1.7,0,0,1-.427.234,1.485,1.485,0,0,1-.539.092,1.716,1.716,0,0,1-.519-.074.872.872,0,0,1-.407-.277,1.543,1.543,0,0,1-.28-.57,4.273,4.273,0,0,1-.137-.946c-.01-.136-.021-.276-.033-.42a3.708,3.708,0,0,0-.061-.427,2.128,2.128,0,0,0-.122-.4,1.114,1.114,0,0,0-.211-.328.763.763,0,0,0-.168-.127.792.792,0,0,0-.2-.076,1.459,1.459,0,0,0-.208-.036c-.07-.007-.137-.01-.2-.01h-.814v3.271h.763v.27h-2.574v-.27h.783v-6.678h-.783v-.27h2.873a4.148,4.148,0,0,1,.46.028,3.028,3.028,0,0,1,.493.1,2.351,2.351,0,0,1,.475.2,1.542,1.542,0,0,1,.407.32,1.5,1.5,0,0,1,.285.471,1.77,1.77,0,0,1,.107.646,1.571,1.571,0,0,1-.168.771,1.533,1.533,0,0,1-.432.5,2.064,2.064,0,0,1-.59.3q-.326.107-.641.178c.119.044.241.085.366.122a2.825,2.825,0,0,1,.374.142,1.607,1.607,0,0,1,.359.234,1.565,1.565,0,0,1,.32.4,1.4,1.4,0,0,1,.114.272c.032.1.06.212.084.326s.042.23.056.351.026.235.036.344q.031.346.074.592a1.964,1.964,0,0,0,.107.4.57.57,0,0,0,.15.227.318.318,0,0,0,.208.071.81.81,0,0,0,.3-.043,1.05,1.05,0,0,0,.209-.114Zm-2.187-5.229a2.46,2.46,0,0,0-.1-.786,1.023,1.023,0,0,0-.307-.47,1.106,1.106,0,0,0-.5-.226,3.388,3.388,0,0,0-.664-.058h-.565v3.1q.59,0,1-.04a1.529,1.529,0,0,0,.661-.2.886.886,0,0,0,.363-.471A2.612,2.612,0,0,0,247.256,391.319Z" transform="translate(-164.413 -389.361)" fill="#fff"/>
      <path id="Path_50" data-name="Path 50" d="M263.153,389.779l-1.79,3.438v3.24h.824v.27h-2.655v-.27h.8v-3.1l-1.811-3.58H257.8v-.27h2.584v.27h-.753l1.562,3.082,1.556-3.082h-.793v-.27h1.811v.27Z" transform="translate(-173.11 -389.361)" fill="#fff"/>
      <path id="Path_51" data-name="Path 51" d="M285.688,389.779v6.678h.778v.27h-2.558v-.27h.747V393.12h-2.543v3.337h.753v.27H280.3v-.27h.783v-6.678H280.3v-.27h2.563v.27h-.753v3.041h2.543v-3.041h-.747v-.27h2.558v.27Z" transform="translate(-186.613 -389.361)" fill="#fff"/>
      <path id="Path_52" data-name="Path 52" d="M297.492,396.726v-.27h.783v-6.678h-.783v-.27h2.594v.27H299.3v6.678h.783v.27Z" transform="translate(-196.929 -389.361)" fill="#fff"/>
      <path id="Path_53" data-name="Path 53" d="M310.448,394.369a2.516,2.516,0,0,1-.158.895,2.065,2.065,0,0,1-.46.725,2.174,2.174,0,0,1-.74.485,2.624,2.624,0,0,1-1,.178,2.42,2.42,0,0,1-.58-.064,3.536,3.536,0,0,1-.445-.14c-.127-.051-.235-.1-.323-.14a.528.528,0,0,0-.214-.064.1.1,0,0,0-.074.033.335.335,0,0,0-.059.082c-.017.032-.032.064-.046.1s-.024.058-.03.079h-.264v-2.289h.264a4.958,4.958,0,0,0,.122.486,4.071,4.071,0,0,0,.186.493,2.8,2.8,0,0,0,.259.455,1.894,1.894,0,0,0,.343.374,1.567,1.567,0,0,0,.435.254,1.464,1.464,0,0,0,.537.094,1.508,1.508,0,0,0,.623-.12,1.233,1.233,0,0,0,.443-.326,1.4,1.4,0,0,0,.264-.475,1.809,1.809,0,0,0,.089-.57,2.052,2.052,0,0,0-.038-.414,1.12,1.12,0,0,0-.127-.339,1.161,1.161,0,0,0-.227-.277,1.678,1.678,0,0,0-.335-.232,2.743,2.743,0,0,0-.379-.163l-.458-.16q-.242-.083-.483-.178a3.388,3.388,0,0,1-.455-.216,2.555,2.555,0,0,1-.392-.282,1.823,1.823,0,0,1-.32-.369,1.762,1.762,0,0,1-.216-.471,2.026,2.026,0,0,1-.079-.587,2.082,2.082,0,0,1,.587-1.45,2.119,2.119,0,0,1,.679-.463,2.208,2.208,0,0,1,.89-.173,2.1,2.1,0,0,1,.544.064,2.912,2.912,0,0,1,.415.14c.117.051.214.1.293.14a.423.423,0,0,0,.172.064.1.1,0,0,0,.069-.033.38.38,0,0,0,.062-.081.985.985,0,0,0,.048-.1c.014-.032.024-.059.03-.079h.259v2.177H309.9q-.086-.361-.2-.727a2.71,2.71,0,0,0-.3-.662,1.586,1.586,0,0,0-.473-.481,1.294,1.294,0,0,0-.717-.186,1.343,1.343,0,0,0-.519.1,1.234,1.234,0,0,0-.412.275,1.283,1.283,0,0,0-.272.415,1.32,1.32,0,0,0-.1.513,1.8,1.8,0,0,0,.048.438,1.192,1.192,0,0,0,.4.646,2.112,2.112,0,0,0,.381.249q.152.076.344.15t.4.15q.206.077.417.158t.4.178a3.025,3.025,0,0,1,.452.277,1.74,1.74,0,0,1,.361.361,1.627,1.627,0,0,1,.239.473A1.976,1.976,0,0,1,310.448,394.369Z" transform="translate(-202.071 -389.14)" fill="#fff"/>
      <path id="Path_54" data-name="Path 54" d="M323.8,391.487a3.758,3.758,0,0,0-.11-.427,3.049,3.049,0,0,0-.236-.545,1.788,1.788,0,0,0-.2-.295,1.529,1.529,0,0,0-.247-.234,1.273,1.273,0,0,0-.262-.153.649.649,0,0,0-.254-.056h-.646v6.678h.794v.27h-2.62v-.27h.793v-6.678h-.646a.655.655,0,0,0-.255.056,1.289,1.289,0,0,0-.262.153,1.514,1.514,0,0,0-.247.234,1.766,1.766,0,0,0-.2.295,3.053,3.053,0,0,0-.237.545,3.657,3.657,0,0,0-.109.427h-.27l.071-1.978H324l.071,1.978Z" transform="translate(-209.585 -389.361)" fill="#fff"/>
      <path id="Path_55" data-name="Path 55" d="M339.386,392.9a5.751,5.751,0,0,1-.183,1.48,3.757,3.757,0,0,1-.534,1.19,2.594,2.594,0,0,1-.867.793,2.361,2.361,0,0,1-1.178.29,2.394,2.394,0,0,1-.859-.148,2.289,2.289,0,0,1-.689-.41,2.7,2.7,0,0,1-.526-.621,3.942,3.942,0,0,1-.371-.775,4.863,4.863,0,0,1-.219-.875,6,6,0,0,1-.071-.926,5.9,5.9,0,0,1,.074-.931,4.949,4.949,0,0,1,.221-.88,3.867,3.867,0,0,1,.371-.773,2.7,2.7,0,0,1,.529-.618,2.334,2.334,0,0,1,.689-.409,2.524,2.524,0,0,1,2.029.145,2.61,2.61,0,0,1,.867.8,3.794,3.794,0,0,1,.534,1.193A5.725,5.725,0,0,1,339.386,392.9Zm-1.145,0q0-.381-.015-.684t-.038-.544q-.023-.242-.053-.435t-.062-.356a2.64,2.64,0,0,0-.185-.618,1.709,1.709,0,0,0-.306-.47,1.242,1.242,0,0,0-.422-.3,1.343,1.343,0,0,0-.537-.1,1.246,1.246,0,0,0-.523.107,1.3,1.3,0,0,0-.415.3,1.674,1.674,0,0,0-.3.468,2.693,2.693,0,0,0-.183.615c-.02.112-.041.232-.061.359s-.038.27-.054.429-.028.34-.038.541-.015.432-.015.689.006.5.018.712.026.4.043.56.035.3.053.427.037.227.054.315a2.843,2.843,0,0,0,.188.621,1.7,1.7,0,0,0,.3.468,1.237,1.237,0,0,0,.412.3,1.264,1.264,0,0,0,.523.1,1.311,1.311,0,0,0,.537-.107,1.261,1.261,0,0,0,.422-.3,1.759,1.759,0,0,0,.306-.47,2.6,2.6,0,0,0,.185-.611q.046-.244.107-.735A10.758,10.758,0,0,0,338.241,392.9Z" transform="translate(-218.772 -389.14)" fill="#fff"/>
      <path id="Path_56" data-name="Path 56" d="M355.876,396.548a1.709,1.709,0,0,1-.427.234,1.488,1.488,0,0,1-.539.092,1.717,1.717,0,0,1-.519-.074.873.873,0,0,1-.407-.277,1.543,1.543,0,0,1-.28-.57,4.275,4.275,0,0,1-.137-.946q-.016-.2-.033-.42a3.627,3.627,0,0,0-.061-.427,2.1,2.1,0,0,0-.122-.4,1.131,1.131,0,0,0-.211-.328.766.766,0,0,0-.168-.127.786.786,0,0,0-.2-.076,1.459,1.459,0,0,0-.208-.036c-.07-.007-.136-.01-.2-.01h-.814v3.271h.763v.27h-2.574v-.27h.783v-6.678h-.783v-.27h2.874a4.153,4.153,0,0,1,.46.028,3.031,3.031,0,0,1,.493.1,2.364,2.364,0,0,1,.476.2,1.542,1.542,0,0,1,.407.32,1.507,1.507,0,0,1,.285.471,1.778,1.778,0,0,1,.107.646,1.575,1.575,0,0,1-.168.771,1.537,1.537,0,0,1-.432.5,2.071,2.071,0,0,1-.59.3q-.326.107-.641.178c.119.044.24.085.366.122a2.822,2.822,0,0,1,.373.142,1.588,1.588,0,0,1,.359.234,1.558,1.558,0,0,1,.321.4,1.422,1.422,0,0,1,.114.272c.032.1.06.212.084.326s.042.23.056.351.026.235.036.344q.031.346.074.592a1.994,1.994,0,0,0,.107.4.571.571,0,0,0,.15.227.32.32,0,0,0,.209.071.812.812,0,0,0,.3-.043,1.051,1.051,0,0,0,.209-.114Zm-2.187-5.229a2.474,2.474,0,0,0-.1-.786,1.024,1.024,0,0,0-.308-.47,1.1,1.1,0,0,0-.5-.226,3.387,3.387,0,0,0-.663-.058h-.565v3.1q.59,0,1-.04a1.531,1.531,0,0,0,.661-.2.888.888,0,0,0,.363-.471A2.6,2.6,0,0,0,353.689,391.319Z" transform="translate(-228.286 -389.361)" fill="#fff"/>
      <path id="Path_57" data-name="Path 57" d="M369.586,389.779l-1.79,3.438v3.24h.824v.27h-2.655v-.27h.8v-3.1l-1.811-3.58h-.717v-.27h2.584v.27h-.753l1.562,3.082,1.556-3.082h-.793v-.27H370.2v.27Z" transform="translate(-236.984 -389.361)" fill="#fff"/>
      <path id="Path_58" data-name="Path 58" d="M391.754,396.726v-.27h.753V389.8H392.4l-2.136,6.928h-.29l-2-6.928h-.117v6.658h.783v.27h-1.907v-.27h.783v-6.678h-.783v-.27h2.2l1.572,5.406,1.658-5.406h2.156v.27h-.783v6.678h.783v.27Z" transform="translate(-250.486 -389.361)" fill="#fff"/>
      <path id="Path_59" data-name="Path 59" d="M410.365,396.68v-.27h.8l-.656-2.137h-2.085l-.656,2.137h.814v.27h-1.811v-.27h.646l2.2-6.979h.437l2.177,6.979h.646v.27Zm-.905-5.737-.936,3.052h1.893Z" transform="translate(-262.513 -389.315)" fill="#fff"/>
      <path id="Path_60" data-name="Path 60" d="M428.071,393.89v1.989a2.121,2.121,0,0,1-.442.3,3.932,3.932,0,0,1-.57.244,4.557,4.557,0,0,1-.623.165,3.16,3.16,0,0,1-.6.062,2.7,2.7,0,0,1-.916-.148,2.417,2.417,0,0,1-.73-.41,2.679,2.679,0,0,1-.549-.621,3.911,3.911,0,0,1-.384-.775,4.583,4.583,0,0,1-.224-.875,6,6,0,0,1-.071-.926,5.264,5.264,0,0,1,.079-.9,4.853,4.853,0,0,1,.234-.872,3.786,3.786,0,0,1,.394-.779,2.973,2.973,0,0,1,.557-.631,2.437,2.437,0,0,1,.72-.422,2.494,2.494,0,0,1,.891-.152,2.74,2.74,0,0,1,.641.066,3.552,3.552,0,0,1,.468.142,3.131,3.131,0,0,1,.318.143.467.467,0,0,0,.186.066.119.119,0,0,0,.086-.036.355.355,0,0,0,.061-.084.678.678,0,0,0,.043-.1l.028-.082h.259v2.177h-.259q-.051-.188-.117-.414t-.158-.453a3.149,3.149,0,0,0-.221-.442,1.706,1.706,0,0,0-.31-.382,1.4,1.4,0,0,0-.425-.264,1.48,1.48,0,0,0-.559-.1,1.435,1.435,0,0,0-.575.11,1.381,1.381,0,0,0-.448.307,1.792,1.792,0,0,0-.328.481,2.974,2.974,0,0,0-.211.623c-.024.106-.047.22-.071.343s-.045.266-.064.425-.034.34-.046.541-.018.432-.018.689.007.5.02.715.031.4.051.565.042.307.064.427.043.223.064.307a3.108,3.108,0,0,0,.2.623,1.626,1.626,0,0,0,.318.471,1.331,1.331,0,0,0,.455.3,1.7,1.7,0,0,0,.954.068,2.074,2.074,0,0,0,.346-.1,1.275,1.275,0,0,0,.288-.158.452.452,0,0,0,.163-.2V393.89h-.8v-.27h2.508v.27Z" transform="translate(-272.226 -389.14)" fill="#fff"/>
      <path id="Path_61" data-name="Path 61" d="M441.424,396.68v-.27h.8l-.656-2.137h-2.085l-.657,2.137h.814v.27h-1.81v-.27h.646l2.2-6.979h.437l2.177,6.979h.647v.27Zm-.9-5.737-.936,3.052h1.892Z" transform="translate(-281.153 -389.315)" fill="#fff"/>
      <path id="Path_62" data-name="Path 62" d="M458.813,396.726h-4.7v-.28l3.612-6.668h-1.674a.977.977,0,0,0-.333.056,1.193,1.193,0,0,0-.292.155,1.349,1.349,0,0,0-.249.234,1.847,1.847,0,0,0-.2.292,2.785,2.785,0,0,0-.237.552,4.291,4.291,0,0,0-.11.44h-.27l.071-2H458.8v.29l-3.6,6.658h1.78a1.341,1.341,0,0,0,.4-.059,1.414,1.414,0,0,0,.343-.158,1.363,1.363,0,0,0,.28-.237,1.632,1.632,0,0,0,.216-.3,3.208,3.208,0,0,0,.163-.346q.076-.188.14-.371t.107-.343c.028-.107.052-.191.068-.251h.26Z" transform="translate(-290.919 -389.361)" fill="#fff"/>
      <path id="Path_63" data-name="Path 63" d="M467.787,396.726v-.27h.783v-6.678h-.783v-.27h2.594v.27H469.6v6.678h.783v.27Z" transform="translate(-299.128 -389.361)" fill="#fff"/>
      <path id="Path_64" data-name="Path 64" d="M481.307,389.779v7.029h-.351l-3.784-6.739v6.389h.783v.27h-1.907v-.27h.783v-6.678h-.783v-.27h1.969l2.95,5.238v-4.969h-.783v-.27H482.1v.27Z" transform="translate(-304.086 -389.361)" fill="#fff"/>
      <path id="Path_65" data-name="Path 65" d="M497.866,396.726h-5.01v-.27h.783v-6.678h-.783v-.27H497.7l.076,2H497.5a4.519,4.519,0,0,0-.107-.44,2.655,2.655,0,0,0-.234-.552,1.845,1.845,0,0,0-.2-.292,1.7,1.7,0,0,0-.234-.234,1.081,1.081,0,0,0-.252-.155.624.624,0,0,0-.246-.056h-1.561v3.041a4.283,4.283,0,0,0,.768-.056,1.013,1.013,0,0,0,.473-.206.882.882,0,0,0,.264-.417,4,4,0,0,0,.143-.695h.27v3h-.28a3.053,3.053,0,0,0-.183-.768.91.91,0,0,0-.31-.407,1,1,0,0,0-.473-.16c-.186-.019-.41-.028-.671-.028v3.377h1.388a1.2,1.2,0,0,0,.377-.059,1.411,1.411,0,0,0,.33-.158,1.347,1.347,0,0,0,.275-.237,1.742,1.742,0,0,0,.214-.3q.086-.158.168-.348t.148-.377c.044-.124.082-.238.112-.343s.051-.187.061-.244h.275Z" transform="translate(-314.173 -389.361)" fill="#fff"/>
    </g>
  </g>
</svg>
