<svg xmlns="http://www.w3.org/2000/svg" width="296.644" height="109.045" viewBox="0 0 296.644 109.045">
  <g id="Group_119" data-name="Group 119" transform="translate(-45.483 -520.164)">
    <g id="Group_114" data-name="Group 114" transform="translate(45.962 520.164)">
      <g id="Group_113" data-name="Group 113" transform="translate(0 13.709)">
        <path id="Path_232" data-name="Path 232" d="M92.146,613.253H88.54q-2.584,0-5.945-.025t-7.163-.025q-3.8,0-7.164-.024t-5.968-.024H58.717q-3.168,0-6.237.048t-6.237.049v-.878l5.8-.1q1.122,0,1.414-.659a3.257,3.257,0,0,0,.292-1.34v-63.2a3.27,3.27,0,0,0-.292-1.34q-.292-.658-1.414-.658l-5.8-.1V544.1q3.167,0,6.237.049t6.237.049q3.021,0,6.14-.049T71,544.1v.878l-5.7.1q-1.121,0-1.413.658a3.26,3.26,0,0,0-.292,1.34v63.2a3.247,3.247,0,0,0,.292,1.34q.293.659,1.413.659H76.162a10.734,10.734,0,0,0,3.8-.659,13.724,13.724,0,0,0,3.264-1.753,14.566,14.566,0,0,0,2.681-2.51,20.1,20.1,0,0,0,2.046-2.972,29.078,29.078,0,0,0,1.585-3.461q.755-1.947,1.364-3.9t1.047-3.606q.438-1.657.682-2.535h.925Z" transform="translate(-46.242 -542.691)" fill="#fff"/>
        <path id="Path_233" data-name="Path 233" d="M142.67,576.608a37.318,37.318,0,0,0,7.626-.659,12.14,12.14,0,0,0,5.092-2.24,10.085,10.085,0,0,0,3.07-4.265,28.47,28.47,0,0,0,1.608-6.774h.975v28.7H159.97a24.019,24.019,0,0,0-2.023-7.479,10.507,10.507,0,0,0-3.533-4.167,11.966,11.966,0,0,0-5.068-1.8,51.155,51.155,0,0,0-6.676-.389v32.746a3.265,3.265,0,0,0,.292,1.34q.292.658,1.413.658h13.157a8.97,8.97,0,0,0,3.631-.755,13.24,13.24,0,0,0,3.192-1.974,17.355,17.355,0,0,0,2.631-2.729,25.175,25.175,0,0,0,2.047-3.07,29.734,29.734,0,0,0,1.608-3.363q.779-1.9,1.413-3.728t1.073-3.386q.439-1.56.585-2.388h1.023l-.829,22.368H162.382q-4.9,0-8.5-.025t-6.14-.025q-2.534,0-4.337-.024t-3.118-.025H137.8q-3.168,0-6.237.049t-6.238.049v-.877l5.8-.1q1.12,0,1.413-.658a3.264,3.264,0,0,0,.292-1.34v-63.2a3.268,3.268,0,0,0-.292-1.34q-.292-.658-1.413-.658l-5.8-.1V544.1q3.167,0,6.238.049t6.237.049h2.461q1.34,0,3.168-.024t4.288-.025q2.461,0,5.848-.024t7.846-.025h10.306l.731,19.151h-1.023q-.147-.828-.44-2.071t-.73-2.68q-.439-1.436-1.023-2.948a25.866,25.866,0,0,0-1.316-2.875,24.147,24.147,0,0,0-1.853-2.875,17.489,17.489,0,0,0-2.168-2.412,11.438,11.438,0,0,0-2.339-1.681,4.936,4.936,0,0,0-2.315-.634H144.376q-1.121,0-1.413.658a3.268,3.268,0,0,0-.292,1.34Z" transform="translate(-75.371 -542.691)" fill="#fff"/>
        <path id="Path_234" data-name="Path 234" d="M259.4,606.435a20.335,20.335,0,0,1-4.239,2.9,37.775,37.775,0,0,1-5.458,2.34,44.358,44.358,0,0,1-5.97,1.583,30.674,30.674,0,0,1-5.775.585,25.886,25.886,0,0,1-8.772-1.414,23.148,23.148,0,0,1-6.992-3.923,25.648,25.648,0,0,1-5.263-5.945,37.221,37.221,0,0,1-3.679-7.431,44.022,44.022,0,0,1-2.144-8.382,57.61,57.61,0,0,1-.682-8.869,50.572,50.572,0,0,1,.755-8.65,46.845,46.845,0,0,1,2.242-8.357,36.482,36.482,0,0,1,3.777-7.455,28.475,28.475,0,0,1,5.336-6.043,23.4,23.4,0,0,1,6.9-4.044,23.827,23.827,0,0,1,8.527-1.463,27.108,27.108,0,0,1,6.189.634,36.642,36.642,0,0,1,4.7,1.414q2.021.78,3.509,1.413a6.872,6.872,0,0,0,2.655.634,1.094,1.094,0,0,0,.829-.366,3.8,3.8,0,0,0,.585-.828,6.663,6.663,0,0,0,.414-.975c.112-.341.2-.609.268-.8h.877v20.856h-.877q-.585-2.095-1.364-4.507a43.74,43.74,0,0,0-1.852-4.751,34.891,34.891,0,0,0-2.486-4.507,18.356,18.356,0,0,0-3.314-3.825,15.16,15.16,0,0,0-4.312-2.631,14.392,14.392,0,0,0-5.434-.975,12.347,12.347,0,0,0-5.506,1.194,13.6,13.6,0,0,0-4.288,3.314,20.067,20.067,0,0,0-3.144,4.97,31.442,31.442,0,0,0-2.022,6.116q-.342,1.511-.682,3.363t-.61,4.239q-.268,2.389-.438,5.361t-.171,6.676a93.385,93.385,0,0,0,.682,12.524q.682,4.873,1.218,7.26a33.249,33.249,0,0,0,1.949,6.116,17.944,17.944,0,0,0,3.046,4.849,13.164,13.164,0,0,0,4.362,3.216,13.931,13.931,0,0,0,5.9,1.17,15.807,15.807,0,0,0,3.241-.365,18.758,18.758,0,0,0,3.314-1.024,12.06,12.06,0,0,0,2.753-1.56,4.559,4.559,0,0,0,1.56-1.925V587.772a4.857,4.857,0,0,0-.049-.682,1.753,1.753,0,0,0-.219-.634,1.362,1.362,0,0,0-.512-.487,1.761,1.761,0,0,0-.877-.2l-5.8-.1V584.8q3.168,0,6.238.049t6.238.049q3.022,0,6.043-.049t6.042-.049v.877l-5.506.1q-1.121,0-1.414.659a3.259,3.259,0,0,0-.292,1.34Z" transform="translate(-106.718 -541.867)" fill="#fff"/>
        <path id="Path_235" data-name="Path 235" d="M317.038,610.281a3.277,3.277,0,0,0,.292,1.341q.292.657,1.414.658l5.8.1v.878q-3.021,0-6.189-.049t-6.188-.048q-3.168,0-6.237.048t-6.237.049v-.878l5.8-.1q1.121,0,1.414-.658a3.277,3.277,0,0,0,.292-1.341v-63.2a3.28,3.28,0,0,0-.292-1.34q-.293-.657-1.414-.658l-5.8-.1V544.1q3.166,0,6.237.049t6.237.049q3.021,0,6.188-.049t6.189-.049v.877l-5.8.1q-1.122,0-1.414.658a3.281,3.281,0,0,0-.292,1.34Z" transform="translate(-139.601 -542.691)" fill="#fff"/>
        <path id="Path_236" data-name="Path 236" d="M394.438,577.879a54.859,54.859,0,0,1-1.754,14.18,35.983,35.983,0,0,1-5.117,11.4,24.912,24.912,0,0,1-8.309,7.6,22.645,22.645,0,0,1-11.281,2.777,22.931,22.931,0,0,1-8.235-1.414,21.934,21.934,0,0,1-6.6-3.923,25.971,25.971,0,0,1-5.044-5.945,37.753,37.753,0,0,1-3.557-7.431,46.5,46.5,0,0,1-2.1-8.382,57.528,57.528,0,0,1-.682-8.869,56.491,56.491,0,0,1,.707-8.918,47.675,47.675,0,0,1,2.119-8.431,37.141,37.141,0,0,1,3.557-7.407,25.934,25.934,0,0,1,5.068-5.921,23.509,23.509,0,0,1,26.046-2.534,25.064,25.064,0,0,1,8.309,7.651,36.29,36.29,0,0,1,5.117,11.427,54.665,54.665,0,0,1,1.754,14.132m-10.964,0a122.737,122.737,0,0,0-.512-12.3q-.511-4.946-1.1-8.114a26.648,26.648,0,0,0-1.778-6.043,17.7,17.7,0,0,0-2.924-4.678,12.264,12.264,0,0,0-4.046-3.021,12.089,12.089,0,0,0-5.14-1.072,11.271,11.271,0,0,0-5.02,1.1,12.813,12.813,0,0,0-3.971,3.045,17.184,17.184,0,0,0-2.9,4.679,27.47,27.47,0,0,0-1.754,5.994q-.634,3.216-1.121,8.089t-.488,12.328a119.493,119.493,0,0,0,.561,12.767q.559,5.069,1.047,7.6a28.669,28.669,0,0,0,1.8,6.018,17.605,17.605,0,0,0,2.875,4.654,12.213,12.213,0,0,0,3.947,3.022,11.506,11.506,0,0,0,5.02,1.072,11.841,11.841,0,0,0,5.14-1.1,12.393,12.393,0,0,0,4.046-3.07,18.237,18.237,0,0,0,2.924-4.677,26.344,26.344,0,0,0,1.778-5.922q.439-2.339,1.023-7.553a117.878,117.878,0,0,0,.585-12.817" transform="translate(-155.098 -541.867)" fill="#fff"/>
        <path id="Path_237" data-name="Path 237" d="M475.516,614.033h-1.9l-37.23-66.371v60.279a4.271,4.271,0,0,0,1.1,3.118,3.89,3.89,0,0,0,2.607,1.219l3.8.1v.877q-1.56,0-3.29-.049t-4.7-.049q-3.169,0-5.044.049t-3.143.049v-.877l3.7-.1a3.888,3.888,0,0,0,2.607-1.219,4.266,4.266,0,0,0,1.1-3.118V547.078a3.279,3.279,0,0,0-.292-1.34q-.293-.658-1.414-.658l-5.7-.1V544.1q1.169,0,2.242.025t2.218.024q1.144,0,2.412.025t2.827.024q1.509,0,2.534-.024t1.9-.025q.877,0,1.705-.024t1.949-.025l28.7,51.166v-45.9a4.262,4.262,0,0,0-1.073-3.07,3.8,3.8,0,0,0-2.582-1.219l-3.8-.1V544.1q.877,0,1.657.025c.519.016,1.088.024,1.7.024s1.292.008,2.023.025,1.6.024,2.607.024q3.118,0,4.946-.049t3.241-.049v.877l-3.7.1a3.888,3.888,0,0,0-2.607,1.219,4.2,4.2,0,0,0-1.1,3.07Z" transform="translate(-186.758 -542.691)" fill="#fff"/>
      </g>
      <path id="Path_238" data-name="Path 238" d="M158.662,532.427l5.963-12.263H171.3v.474l-12.162,11.789Z" transform="translate(-87.652 -520.164)" fill="#fff"/>
    </g>
    <text id="REVUE_D_HISTOIRE_MILITAIRE_DU_CANADA" data-name="REVUE D’HISTOIRE MILITAIRE DU CANADA" transform="translate(45.483 624.209)" fill="#fff" font-size="16" font-family="Stilson-Regular, Stilson" letter-spacing="0.02em"><tspan x="0" y="0">REVUE D’HISTOIRE MILITAIRE DU CANADA</tspan></text>
  </g>
</svg>
