<svg xmlns="http://www.w3.org/2000/svg" width="66" height="66.112" viewBox="0 0 66 66.112">
  <g id="Group_1" data-name="Group 1" transform="translate(241.393 -264.25)">
    <path id="Path_3" data-name="Path 3" d="M-208.47,365.061c-7.332,0-14.663.013-21.994,0a10.57,10.57,0,0,1-10.921-11q-.014-12.011,0-24.023a10.472,10.472,0,0,1,10.694-10.821q4.032-.046,8.065,0c2.042.02,3.238,1.106,3.277,2.893a2.9,2.9,0,0,1-3.117,3.078c-2.564.074-5.132,0-7.7.039-3.468.06-5.164,1.745-5.178,5.228q-.049,11.644,0,23.289c.013,3.562,1.728,5.268,5.321,5.273q21.628.031,43.256,0c3.614-.006,5.285-1.678,5.3-5.278q.044-11.645,0-23.29c-.014-3.514-1.669-5.165-5.158-5.223-2.382-.04-4.765.011-7.148-.016-2.436-.028-3.717-1.124-3.681-3.086.035-1.9,1.277-2.906,3.629-2.914,2.688-.01,5.377-.029,8.065.014a10.419,10.419,0,0,1,10.343,10.415q.051,12.47,0,24.939a10.512,10.512,0,0,1-10.507,10.475C-193.44,365.087-200.955,365.06-208.47,365.061Z" transform="translate(0 -34.708)"/>
    <path id="Path_4" data-name="Path 4" d="M-185.907,361.572a12.428,12.428,0,0,1,12.62-12.465,12.459,12.459,0,0,1,12.561,12.537,12.519,12.519,0,0,1-12.541,12.407A12.5,12.5,0,0,1-185.907,361.572Zm12.327,6.384a6.53,6.53,0,0,0,6.827-6.184,6.566,6.566,0,0,0-6.408-6.637,6.578,6.578,0,0,0-6.74,6.311A6.518,6.518,0,0,0-173.58,367.956Z" transform="translate(-35.052 -53.607)"/>
    <path id="Path_5" data-name="Path 5" d="M-167.816,275.209v7.449c0,1.344.014,2.688,0,4.032-.034,2.468-1.073,3.735-3.031,3.729s-2.958-1.258-2.963-3.759c-.009-3.829,0-7.658,0-11.965-1.122,1.066-1.929,1.841-2.744,2.6-1.608,1.506-3.194,1.612-4.528.308a3.1,3.1,0,0,1,.231-4.551q3.8-3.848,7.66-7.627c1.6-1.553,3.1-1.576,4.656-.057q3.94,3.832,7.782,7.765c1.41,1.437,1.46,3.121.239,4.395-1.295,1.351-3,1.325-4.514-.166-.777-.765-1.423-1.663-2.128-2.5Z" transform="translate(-37.533)"/>
    <path id="Path_6" data-name="Path 6" d="M-109.485,354.6a7.729,7.729,0,0,1-1.815-.023,2.876,2.876,0,0,1-2.354-2.874,2.683,2.683,0,0,1,2.235-2.919,12.33,12.33,0,0,1,3.257-.148,2.9,2.9,0,0,1,2.866,3.121,2.934,2.934,0,0,1-3.095,2.893c-.364.016-.729,0-1.094,0Z" transform="translate(-80.696 -53.281)"/>
  </g>
</svg>
